<svg width="38" height="40" viewBox="0 0 38 40" fill="none" xmlns="http://www.w3.org/2000/svg">
<g clip-path="url(#clip0_12476_4288)">
<path d="M32.6291 5.268L27.7122 10.0689C27.5577 10.2196 27.3558 10.3153 27.139 10.3406C26.9221 10.3659 26.7029 10.3194 26.5163 10.2085C24.5822 9.06925 22.3517 8.50105 20.094 8.57257C17.8362 8.64408 15.6481 9.35223 13.7937 10.6115C12.6532 11.3867 11.6628 12.3537 10.8689 13.4673C9.58077 15.2792 8.85621 17.4158 8.7824 19.6203C8.70861 21.8248 9.28872 24.0032 10.453 25.8933C10.5657 26.0752 10.6129 26.2885 10.587 26.4997C10.5611 26.7107 10.4635 26.9072 10.31 27.0578L5.39315 31.8587C5.29415 31.956 5.17477 32.0313 5.04319 32.0793C4.91162 32.1275 4.77097 32.1472 4.63085 32.1373C4.49073 32.1273 4.35447 32.088 4.2314 32.0218C4.10832 31.9557 4.00135 31.8643 3.91779 31.754C1.25748 28.1835 -0.117364 23.8535 0.00785532 19.4398C0.133075 15.0261 1.75131 10.7771 4.60997 7.3559C5.4827 6.30915 6.46269 5.35223 7.53473 4.5001C11.0382 1.70957 15.3892 0.129937 19.9088 0.00767219C24.4283 -0.114593 28.8621 1.22739 32.5185 3.82422C32.6323 3.90553 32.7265 4.00997 32.7948 4.1303C32.8633 4.25063 32.9041 4.384 32.9146 4.52123C32.9252 4.65847 32.9051 4.7963 32.8558 4.92522C32.8064 5.05413 32.7291 5.17108 32.6291 5.268Z" fill="url(#paint0_linear_12476_4288)"/>
<path d="M32.625 34.7148L27.7081 29.9138C27.5537 29.7632 27.3517 29.6675 27.135 29.6422C26.9182 29.6168 26.6988 29.6633 26.5123 29.7742C24.6886 30.8483 22.5992 31.4162 20.4695 31.4162C18.3397 31.4162 16.2503 30.8483 14.4266 29.7742C14.2401 29.6633 14.0208 29.6168 13.8039 29.6422C13.5871 29.6675 13.3852 29.7632 13.2307 29.9138L8.31389 34.7148C8.21078 34.8115 8.13075 34.9293 8.07947 35.0597C8.02818 35.19 8.00691 35.3298 8.01715 35.4692C8.02738 35.6085 8.06887 35.7438 8.1387 35.8657C8.20851 35.9877 8.30493 36.093 8.42114 36.1743C11.9211 38.6608 16.138 40.0002 20.4663 40.0002C24.7945 40.0002 29.0114 38.6608 32.5113 36.1743C32.6279 36.0935 32.7249 35.9885 32.7954 35.8668C32.8657 35.7452 32.9079 35.61 32.9188 35.4707C32.9295 35.3313 32.9089 35.1913 32.8582 35.0608C32.8073 34.9302 32.7278 34.812 32.625 34.7148Z" fill="white"/>
<path d="M20.4784 25.7038C23.7089 25.7038 26.328 23.1466 26.328 19.9921C26.328 16.8378 23.7089 14.2805 20.4784 14.2805C17.2478 14.2805 14.6289 16.8378 14.6289 19.9921C14.6289 23.1466 17.2478 25.7038 20.4784 25.7038Z" fill="white"/>
</g>
<defs>
<linearGradient id="paint0_linear_12476_4288" x1="28.008" y1="-2.93135" x2="-12.4695" y2="38.5264" gradientUnits="userSpaceOnUse">
<stop stop-color="#17CCFC"/>
<stop offset="0.5" stopColor="#5D31FF"/>
<stop offset="1" stopColor="#F35AFF"/>
</linearGradient>
<clipPath id="clip0_12476_4288">
<rect width="38" height="40" fill="white"/>
</clipPath>
</defs>
</svg>
