<svg width="47" height="47" viewBox="0 0 47 47" fill="none" xmlns="http://www.w3.org/2000/svg">
<g clip-path="url(#clip0_9894_4325)">
<path d="M6.63843 42.1814L2.81494 0.305054H43.8719L40.1395 42.1814L23.389 46.9152" fill="#264DE4"/>
<path d="M23.3892 3.67334V43.2738L36.9534 39.5413L40.1397 3.67334" fill="#2965F1"/>
<path d="M10.4624 8.86243H23.3894V13.9604H10.9176M11.3728 19.2405H23.3894V24.4295H11.8279M12.101 26.9785H17.199L17.5632 31.0751L23.3894 32.6227V37.9938L12.7383 35.0806" fill="#EBEBEB"/>
<path d="M23.3892 19.2405V24.4295H29.6706L29.0334 31.0751L23.3892 32.6227V37.9938L33.8582 35.0806L36.2252 8.86243H23.3892V13.9604H30.672L30.1713 19.2405H23.3892Z" fill="white"/>
</g>
<defs>
<clipPath id="clip0_9894_4325">
<rect width="46.6102" height="46.6102" fill="white" transform="translate(0.0844727 0.305054)"/>
</clipPath>
</defs>
</svg>
