<svg width="48" height="47" viewBox="0 0 48 47" fill="none" xmlns="http://www.w3.org/2000/svg">
<path d="M4.441 25.6686C3.30417 24.5318 3.30417 22.6886 4.441 21.5518L21.9219 4.07088C23.0588 2.93406 24.9019 2.93406 26.0388 4.07088L43.5196 21.5518C44.6565 22.6886 44.6565 24.5318 43.5196 25.6686L26.0388 43.1495C24.9019 44.2863 23.0588 44.2863 21.9219 43.1495L4.441 25.6686Z" fill="#EE513B"/>
<path d="M18.3712 7.67749L16.6011 9.44772L21.1731 14.0198C20.9881 14.4165 20.8848 14.8591 20.8848 15.3258C20.8848 16.6506 21.7173 17.7811 22.8876 18.2226V29.407C21.7173 29.8485 20.8848 30.9789 20.8848 32.3038C20.8848 34.0132 22.2706 35.399 23.98 35.399C25.6895 35.399 27.0753 34.0132 27.0753 32.3038C27.0753 31.1027 26.3911 30.0613 25.3912 29.5483V18.2379L29.7616 22.6083C29.5856 22.9971 29.4878 23.4286 29.4878 23.8831C29.4878 25.5925 30.8735 26.9783 32.583 26.9783C34.2924 26.9783 35.6782 25.5925 35.6782 23.8831C35.6782 22.1737 34.2924 20.7879 32.583 20.7879C32.2507 20.7879 31.9309 20.8402 31.6308 20.937L26.937 16.2432C27.0269 15.9534 27.0753 15.6452 27.0753 15.3258C27.0753 13.6163 25.6895 12.2305 23.98 12.2305C23.6606 12.2305 23.3526 12.2789 23.0626 12.3688L18.3712 7.67749Z" fill="white"/>
</svg>
