<svg width="47" height="47" viewBox="0 0 47 47" fill="none" xmlns="http://www.w3.org/2000/svg">
<g clip-path="url(#clip0_9894_4318)">
<path d="M6.59378 42.1814L2.86133 0.305054H43.9183L40.1859 42.1814L23.3443 46.9152" fill="#E34F26"/>
<path d="M23.4355 43.2738L36.9998 39.5413L40.1861 3.67334H23.4355" fill="#EF652A"/>
<path d="M23.4349 19.2405H16.6072L16.152 13.9604H23.4349V8.86243H10.5078L11.8733 24.4295H23.4349V19.2405ZM23.3438 32.6227L17.6086 31.0751L17.2444 26.9785H12.1465L12.7837 35.0806L23.3438 37.9938V32.6227Z" fill="#EBEBEB"/>
<path d="M23.3438 19.2405V24.4295H29.7162L29.079 31.0751L23.3438 32.6227V37.9938L33.9039 35.0806L35.3604 19.2405H23.3438ZM23.3438 8.86243V13.9604H35.8156L36.2708 8.86243H23.3438Z" fill="white"/>
</g>
<defs>
<clipPath id="clip0_9894_4318">
<rect width="46.6102" height="46.6102" fill="white" transform="translate(0.129883 0.305054)"/>
</clipPath>
</defs>
</svg>
