<svg width="47" height="47" viewBox="0 0 47 47" fill="none" xmlns="http://www.w3.org/2000/svg">
<g clip-path="url(#clip0_9894_4357)">
<path d="M23.5482 46.9152C36.4193 46.9152 46.8533 36.4812 46.8533 23.6101C46.8533 10.7391 36.4193 0.305054 23.5482 0.305054C10.6772 0.305054 0.243164 10.7391 0.243164 23.6101C0.243164 36.4812 10.6772 46.9152 23.5482 46.9152Z" fill="#13AA52"/>
<path d="M29.7781 20.7626C28.306 14.2658 24.8271 12.1297 24.4525 11.3136C24.0428 10.7378 23.6277 9.71361 23.6277 9.71361C23.6209 9.69631 23.61 9.66582 23.5972 9.63623C23.5549 10.212 23.533 10.4342 22.9887 11.015C22.1457 11.6741 17.8206 15.3032 17.4687 22.6843C17.1405 29.5685 22.4415 33.6705 23.1584 34.1935L23.2399 34.2513V34.2463C23.2445 34.2809 23.4675 35.8849 23.6241 37.5846H24.1858C24.3176 36.3832 24.5151 35.1899 24.7775 34.0101L24.823 33.9805C25.1437 33.7506 25.4494 33.5005 25.7384 33.2317L25.7712 33.2021C27.2951 31.7943 30.0348 28.5379 30.0079 23.3462C30.0023 22.4801 29.9254 21.616 29.7781 20.7626ZM23.5645 30.3067C23.5645 30.3067 23.5645 20.6515 23.8831 20.6533C24.1316 20.6533 24.4534 33.1075 24.4534 33.1075C24.011 33.0542 23.5645 31.0578 23.5645 30.3067Z" fill="white"/>
</g>
<defs>
<clipPath id="clip0_9894_4357">
<rect width="46.6102" height="46.6102" fill="white" transform="translate(0.243164 0.305054)"/>
</clipPath>
</defs>
</svg>
