<svg width="47" height="47" viewBox="0 0 47 47" fill="none" xmlns="http://www.w3.org/2000/svg">
<g clip-path="url(#clip0_9894_4308)">
<path d="M21.9955 0.317597C21.8953 0.326708 21.5764 0.358597 21.2893 0.381374C14.6691 0.978152 8.46812 4.54971 4.54065 10.0391C2.35367 13.0914 0.954905 16.5536 0.426383 20.2208C0.239578 21.5009 0.216797 21.879 0.216797 23.6147C0.216797 25.3504 0.239578 25.7285 0.426383 27.0086C1.69301 35.7598 7.92137 43.1125 16.3686 45.8367C17.8813 46.3241 19.476 46.6567 21.2893 46.8571C21.9955 46.9346 25.0482 46.9346 25.7544 46.8571C28.8846 46.5109 31.5363 45.7365 34.1516 44.4017C34.5525 44.1967 34.63 44.142 34.5753 44.0965C34.5388 44.0691 32.8302 41.7777 30.7799 39.0079L27.053 33.974L22.3828 27.0633C19.8131 23.2639 17.699 20.157 17.6808 20.157C17.6626 20.1525 17.6444 23.2229 17.6352 26.9721C17.6216 33.5367 17.617 33.8009 17.535 33.9558C17.4165 34.179 17.3254 34.2701 17.1341 34.3704C16.9883 34.4433 16.8607 34.4569 16.1727 34.4569H15.3845L15.1749 34.3248C15.0382 34.2383 14.938 34.1244 14.8696 33.9923L14.7739 33.7873L14.783 24.6534L14.7967 15.5149L14.938 15.3373C15.0109 15.2416 15.1658 15.1186 15.2751 15.0594C15.4619 14.9683 15.5348 14.9591 16.323 14.9591C17.2525 14.9591 17.4074 14.9956 17.6489 15.2598C17.7173 15.3327 20.246 19.1411 23.2713 23.7286C26.2966 28.316 30.4337 34.5799 32.4657 37.6549L36.1563 43.2446L36.3431 43.1216C37.997 42.0465 39.7466 40.5158 41.1317 38.9214C44.0796 35.5366 45.9795 31.4093 46.6174 27.0086C46.8042 25.7285 46.827 25.3504 46.827 23.6147C46.827 21.879 46.8042 21.5009 46.6174 20.2208C45.3507 11.4696 39.1224 4.11693 30.6752 1.39271C29.1853 0.909819 27.5997 0.577263 25.8228 0.376819C25.3854 0.331263 22.3737 0.281152 21.9955 0.317597ZM31.5363 14.4125C31.755 14.5218 31.9327 14.7314 31.9965 14.95C32.0329 15.0685 32.042 17.6014 32.0329 23.3095L32.0192 31.5004L30.5749 29.2864L29.126 27.0724V21.1183C29.126 17.2688 29.1443 15.1049 29.1716 15.0001C29.2445 14.745 29.404 14.5446 29.6227 14.4261C29.8095 14.3305 29.8778 14.3214 30.5931 14.3214C31.2675 14.3214 31.3859 14.3305 31.5363 14.4125Z" fill="white"/>
</g>
<defs>
<clipPath id="clip0_9894_4308">
<rect width="46.6102" height="46.6102" fill="white" transform="translate(0.216797 0.305054)"/>
</clipPath>
</defs>
</svg>
