<svg width="48" height="47" viewBox="0 0 48 47" fill="none" xmlns="http://www.w3.org/2000/svg">
<g clip-path="url(#clip0_9894_4348)">
<path d="M24.265 46.8287C23.6239 46.8287 23.0256 46.6578 22.4699 46.3586L16.7854 42.982C15.9305 42.5119 16.3579 42.3409 16.6144 42.2554C17.7684 41.8708 17.9821 41.7853 19.1789 41.1014C19.3071 41.0159 19.478 41.0587 19.6063 41.1442L23.9659 43.7514C24.1368 43.8369 24.3505 43.8369 24.4788 43.7514L41.5324 33.8782C41.7034 33.7927 41.7889 33.6217 41.7889 33.408V13.7044C41.7889 13.4907 41.7034 13.3197 41.5324 13.2342L24.4788 3.40378C24.3078 3.3183 24.0941 3.3183 23.9659 3.40378L6.91216 13.2342C6.74119 13.3197 6.65571 13.5334 6.65571 13.7044V33.408C6.65571 33.579 6.74119 33.7927 6.91216 33.8782L11.5709 36.5709C14.0927 37.8531 15.6741 36.3572 15.6741 34.8612V15.414C15.6741 15.1576 15.8878 14.9011 16.187 14.9011H18.3668C18.6232 14.9011 18.8797 15.1148 18.8797 15.414V34.8612C18.8797 38.2378 17.0418 40.2039 13.8362 40.2039C12.8532 40.2039 12.0838 40.2039 9.90403 39.1353L5.41622 36.5709C4.30495 35.9298 3.62109 34.733 3.62109 33.4508V13.7471C3.62109 12.4649 4.30495 11.2681 5.41622 10.627L22.4699 0.753835C23.5384 0.15546 24.9916 0.15546 26.0602 0.753835L43.1139 10.627C44.2251 11.2681 44.909 12.4649 44.909 13.7471V33.4508C44.909 34.733 44.2251 35.9298 43.1139 36.5709L26.0602 46.4441C25.5045 46.7005 24.8634 46.8287 24.265 46.8287ZM29.5222 33.2798C22.0425 33.2798 20.5038 29.8605 20.5038 26.9541C20.5038 26.6977 20.7175 26.4412 21.0167 26.4412H23.2393C23.4957 26.4412 23.7094 26.6122 23.7094 26.8686C24.0513 29.1339 25.0344 30.2452 29.5649 30.2452C33.1552 30.2452 34.6939 29.4331 34.6939 27.5098C34.6939 26.3985 34.2665 25.5864 28.6674 25.0308C24.0086 24.5606 21.1022 23.5348 21.1022 19.8164C21.1022 16.3543 24.0086 14.3028 28.8811 14.3028C34.3519 14.3028 37.0446 16.1834 37.3866 20.2865C37.3866 20.4147 37.3438 20.543 37.2583 20.6712C37.1729 20.7567 37.0446 20.8421 36.9164 20.8421H34.6939C34.4802 20.8421 34.2665 20.6712 34.2237 20.4575C33.7108 18.1067 32.3859 17.3374 28.8811 17.3374C24.9489 17.3374 24.4788 18.7051 24.4788 19.7309C24.4788 20.9704 25.0344 21.355 30.3343 22.0389C35.5914 22.7228 38.0704 23.7058 38.0704 27.3815C38.0277 31.1428 34.9503 33.2798 29.5222 33.2798Z" fill="#539E43"/>
</g>
<defs>
<clipPath id="clip0_9894_4348">
<rect width="46.6102" height="46.6102" fill="white" transform="translate(0.958984 0.305054)"/>
</clipPath>
</defs>
</svg>
