<svg width="47" height="47" viewBox="0 0 47 47" fill="none" xmlns="http://www.w3.org/2000/svg">
<path d="M27.512 23.575C27.512 21.4857 25.7651 19.7917 23.61 19.7917C21.4552 19.7917 19.708 21.4857 19.708 23.575C19.708 25.6646 21.4552 27.3585 23.61 27.3585C25.7651 27.3585 27.512 25.6646 27.512 23.575Z" fill="#53C1DE"/>
<path fill-rule="evenodd" clip-rule="evenodd" d="M36.282 16.5512C37.106 13.3046 38.1417 7.28421 34.4904 5.2431C30.8561 3.21088 26.1268 7.10498 23.6295 9.44241C21.1395 7.12827 16.2773 3.25082 12.6291 5.29842C8.99626 7.33745 10.1165 13.2581 10.9588 16.525C7.56999 17.4582 1.76074 19.4683 1.76074 23.5751C1.76074 27.6702 7.56394 29.8571 10.9327 30.7895C10.0873 34.0745 9.02313 39.9105 12.6606 41.945C16.3225 43.9922 21.1695 40.207 23.69 37.8441C26.2033 40.1952 30.8871 44.0052 34.5222 41.965C38.1685 39.9184 37.2188 33.9786 36.3765 30.6927C39.6421 29.7584 45.4578 27.6191 45.4578 23.5751C45.4578 19.5078 39.6174 17.4814 36.282 16.5512ZM35.868 28.9514C35.315 27.2539 34.5685 25.4488 33.6554 23.5841C34.527 21.7634 35.2445 19.9816 35.7821 18.295C38.2272 18.9824 43.5912 20.5533 43.5912 23.5751C43.5912 26.6253 38.4438 28.211 35.868 28.9514ZM33.5867 40.3986C30.8746 41.9207 26.8459 38.2772 24.9898 36.5458C26.2212 35.24 27.4517 33.722 28.6526 32.0363C30.7652 31.8546 32.7609 31.5575 34.5708 31.1519C35.1636 33.4761 36.3108 38.8696 33.5867 40.3986ZM13.5933 40.3769C10.8809 38.8604 12.1207 33.6526 12.7426 31.2328C14.5324 31.6168 16.5137 31.893 18.6313 32.0594C19.8401 33.7089 21.1063 35.225 22.3822 36.5528C20.8058 38.0314 16.3184 41.9003 13.5933 40.3769ZM3.62732 23.5751C3.62732 20.5135 8.9592 18.954 11.4601 18.2684C12.007 19.9928 12.7243 21.7959 13.5899 23.6192C12.713 25.4696 11.9855 27.3013 11.4336 29.0461C9.04896 28.3842 3.62732 26.6385 3.62732 23.5751ZM13.5643 6.86481C16.2878 5.33632 20.5136 9.05882 22.3215 10.7343C21.0521 12.056 19.7976 13.5607 18.5991 15.2007C16.544 15.3854 14.5767 15.6819 12.7682 16.0793C12.0896 13.4444 10.8438 8.39166 13.5643 6.86481ZM29.988 17.1679C31.3822 17.3385 32.7181 17.5654 33.9723 17.8431C33.5958 19.0133 33.1265 20.2369 32.5737 21.4913C31.7724 20.0173 30.9123 18.5728 29.988 17.1679ZM23.6301 12.0277C24.4911 12.932 25.3534 13.9419 26.2017 15.0376C24.481 14.9586 22.7576 14.9583 21.037 15.0364C21.886 13.9509 22.7557 12.9425 23.6301 12.0277ZM14.6608 21.49C14.1172 20.24 13.6521 19.0109 13.2723 17.824C14.5191 17.5535 15.8487 17.3324 17.2339 17.1646C16.3069 18.5664 15.4483 20.0103 14.6608 21.49ZM17.2736 30.1148C15.8427 29.9599 14.493 29.7501 13.2466 29.487C13.6324 28.2792 14.1077 27.0237 14.663 25.7467C15.4612 27.2418 16.333 28.6997 17.2736 30.1148ZM23.6818 35.2503C22.7971 34.3247 21.9145 33.3009 21.0527 32.1997C22.7831 32.2655 24.5168 32.2657 26.2471 32.1908C25.3962 33.3121 24.5369 34.3374 23.6818 35.2503ZM32.5915 25.6817C33.1756 26.9725 33.6679 28.2212 34.059 29.4086C32.7919 29.689 31.424 29.9148 29.9828 30.0824C30.9139 28.6509 31.7877 27.184 32.5915 25.6817ZM27.6109 30.3018C24.964 30.4852 22.3007 30.4831 19.6529 30.3168C18.1484 28.186 16.8091 25.9451 15.653 23.6186C16.8036 21.297 18.1331 19.0604 19.6305 16.933C22.2801 16.7388 24.9461 16.7382 27.5957 16.9342C29.0803 19.0615 30.4078 21.2922 31.585 23.5929C30.4218 25.9133 29.0852 28.1544 27.6109 30.3018ZM33.5581 6.81101C36.2823 8.33449 35.0697 13.7452 34.4745 16.0981C32.6617 15.6924 30.693 15.3906 28.6319 15.203C27.4311 13.5454 26.1871 12.038 24.9382 10.7334C26.7693 9.0218 30.8602 5.30242 33.5581 6.81101Z" fill="#53C1DE"/>
</svg>
