<?xml version="1.0" encoding="UTF-8"?>
<svg version="1.1" xmlns="http://www.w3.org/2000/svg" viewBox="0 0 256 256" className="h6-w-6">

<path d="M0 0 C1.65 0 3.3 0 5 0 C5 7.59 5 15.18 5 23 C2.66666667 23 0.33333333 23 -2 23 C-3.7015625 23.12375 -3.7015625 23.12375 -5.4375 23.25 C-9 23 -9 23 -10.9375 21.5625 C-12.54130175 17.69450754 -12.67298561 14.12109164 -12 10 C-10.375 7.4375 -10.375 7.4375 -8 6 C-4.8125 5.6875 -4.8125 5.6875 -2 6 C-1.67 6.33 -1.34 6.66 -1 7 C-0.67 4.69 -0.34 2.38 0 0 Z " fill="#EAEAEA" transform="translate(140,14)"/>
<path d="M0 0 C2.81388879 0.43852812 4.10340611 1.3128909 6.10546875 3.328125 C6.6796875 5.66796875 6.6796875 5.66796875 6.79296875 8.265625 C6.95996629 11.42903564 7.23445046 14.27602027 8.10546875 17.328125 C6.45546875 17.328125 4.80546875 17.328125 3.10546875 17.328125 C3.10546875 16.668125 3.10546875 16.008125 3.10546875 15.328125 C2.11546875 15.988125 1.12546875 16.648125 0.10546875 17.328125 C-6.2171119 17.7797379 -6.2171119 17.7797379 -9.89453125 15.328125 C-9.14453125 10.578125 -9.14453125 10.578125 -6.89453125 8.328125 C-4.23915753 7.76292497 -1.60308412 7.59024302 1.10546875 7.328125 C0.77546875 6.338125 0.44546875 5.348125 0.10546875 4.328125 C-4.34953125 4.823125 -4.34953125 4.823125 -8.89453125 5.328125 C-6.17162668 -0.11768415 -5.9448368 0.2230708 0 0 Z " fill="#EDEDED" transform="translate(117.89453125,19.671875)"/>
<path d="M0 0 C1.65 0 3.3 0 5 0 C5 2.31 5 4.62 5 7 C5.66 6.67 6.32 6.34 7 6 C10 5.8125 10 5.8125 13 6 C15 8 15 8 15.1953125 11.4765625 C15.18201493 12.85950968 15.15816232 14.24238654 15.125 15.625 C15.11597656 16.33140625 15.10695313 17.0378125 15.09765625 17.765625 C15.07407603 19.51056098 15.03820461 21.25532295 15 23 C13.68 23 12.36 23 11 23 C10.67 19.04 10.34 15.08 10 11 C8.68 11 7.36 11 6 11 C5.67 14.96 5.34 18.92 5 23 C3.35 23 1.7 23 0 23 C0 15.41 0 7.82 0 0 Z " fill="#EEEEEE" transform="translate(90,14)"/>
<path d="M0 0 C1.65 0 3.3 0 5 0 C5.33 3.96 5.66 7.92 6 12 C7.32 12.33 8.64 12.66 10 13 C10.33 8.71 10.66 4.42 11 0 C12.32 0 13.64 0 15 0 C15 5.61 15 11.22 15 17 C13.35 16.67 11.7 16.34 10 16 C9.67 16.33 9.34 16.66 9 17 C3.72426831 17.45875928 3.72426831 17.45875928 1.31640625 15.93359375 C-0.70789836 12.96020864 -0.28491652 10.35196671 -0.1875 6.8125 C-0.16042969 5.54019531 -0.13335937 4.26789062 -0.10546875 2.95703125 C-0.07066406 1.98121094 -0.03585938 1.00539063 0 0 Z " fill="#F1F1F1" transform="translate(203,20)"/>
<path d="M0 0 C2.475 0.495 2.475 0.495 5 1 C5.33 0.67 5.66 0.34 6 0 C11.27573169 -0.45875928 11.27573169 -0.45875928 13.68359375 1.06640625 C15.70789836 4.03979136 15.28491652 6.64803329 15.1875 10.1875 C15.16042969 11.45980469 15.13335937 12.73210938 15.10546875 14.04296875 C15.07066406 15.01878906 15.03585938 15.99460937 15 17 C13.35 17 11.7 17 10 17 C10 12.71 10 8.42 10 4 C8.35 4 6.7 4 5 4 C4.67 8.29 4.34 12.58 4 17 C2.68 17 1.36 17 0 17 C0 11.39 0 5.78 0 0 Z " fill="#F2F2F3" transform="translate(168,20)"/>
<path d="M0 0 C0.680625 -0.00515625 1.36125 -0.0103125 2.0625 -0.015625 C4 0.25 4 0.25 7 2.25 C7 3.24 7 4.23 7 5.25 C3.37471432 5.45140476 1.13498292 5.10776765 -2 3.25 C-1.67 4.24 -1.34 5.23 -1 6.25 C1.31847874 6.9666207 3.65319703 7.63242027 6 8.25 C8 10.25 8 10.25 8.3125 12.75 C8.1578125 13.9875 8.1578125 13.9875 8 15.25 C4.877998 17.33133467 4.06733011 17.5237822 0.5 17.5 C-0.66015625 17.50773437 -0.66015625 17.50773437 -1.84375 17.515625 C-4 17.25 -4 17.25 -7 15.25 C-7 14.26 -7 13.27 -7 12.25 C-3.80097361 12.16113816 -1.07322544 12.33941469 2 13.25 C2.33 12.59 2.66 11.93 3 11.25 C1.906875 11.146875 0.81375 11.04375 -0.3125 10.9375 C-4 10.25 -4 10.25 -5.9375 9 C-7.40555487 6.58202727 -7.4267842 5.02409733 -7 2.25 C-4.00261059 0.25174039 -3.36652492 -0.02550398 0 0 Z " fill="#EBEBEB" transform="translate(79,19.75)"/>
<path d="M0 0 C2 1.3125 2 1.3125 3 3 C3 3.99 3 4.98 3 6 C0.55672764 5.52491926 -1.85089239 5.04141878 -4.25 4.375 C-4.8275 4.25125 -5.405 4.1275 -6 4 C-7.33648017 5.11101184 -7.33648017 5.11101184 -7.125 7.9375 C-7.21325664 10.91545728 -7.21325664 10.91545728 -6 13 C-4.02463255 12.65213292 -4.02463255 12.65213292 -2 12 C-1.67 11.34 -1.34 10.68 -1 10 C0.65 10 2.3 10 4 10 C3.43381516 13.28387207 2.61442032 14.91433885 0 17 C-2.15625 17.3984375 -2.15625 17.3984375 -4.5 17.375 C-5.2734375 17.38273437 -6.046875 17.39046875 -6.84375 17.3984375 C-9.54526057 16.89924533 -10.38654537 16.20374291 -12 14 C-12.99229071 10.98929977 -13.25986677 8.15710485 -13 5 C-9.48011486 -0.56368942 -6.08854172 -0.78561829 0 0 Z " fill="#ECECEC" transform="translate(161,20)"/>
<path d="M0 0 C1.65 0 3.3 0 5 0 C2.29895639 9.42995928 -0.87152311 18.70569001 -4 28 C-5.65 28 -7.3 28 -9 28 C-6.64500307 18.43540722 -3.35051831 9.24916544 0 0 Z " fill="#E8E8E8" transform="translate(195,13)"/>
<path d="M0 0 C-0.86846365 4.62719424 -3.65247319 7.0851313 -6.8984375 10.296875 C-7.78458237 11.18732513 -7.78458237 11.18732513 -8.68862915 12.09576416 C-9.93749508 13.34666914 -11.19014787 14.59380327 -12.44628906 15.83740234 C-14.3714219 17.74645179 -16.28001164 19.67099468 -18.1875 21.59765625 C-19.40268482 22.81085917 -20.61879966 24.02313144 -21.8359375 25.234375 C-22.6938942 26.10144073 -22.6938942 26.10144073 -23.56918335 26.98602295 C-27.65509849 31 -27.65509849 31 -31 31 C-29.34505714 26.73294513 -26.15086959 23.8628007 -22.96875 20.703125 C-22.37703003 20.10949158 -21.78531006 19.51585815 -21.17565918 18.90423584 C-19.92734419 17.65456282 -18.67651177 16.40740008 -17.42333984 15.16259766 C-15.49992003 13.24992048 -13.58743901 11.32676881 -11.67578125 9.40234375 C-10.46157861 8.18946202 -9.24675607 6.97720048 -8.03125 5.765625 C-7.45725464 5.18758118 -6.88325928 4.60953735 -6.29187012 4.01397705 C-2.22993434 0 -2.22993434 0 0 0 Z " fill="#F7F7F8" transform="translate(43,8)"/>
<path d="M0 0 C0.66 0.99 1.32 1.98 2 3 C0.02 3.66 -1.96 4.32 -4 5 C-4.41725678 8.37400578 -4.41725678 8.37400578 -4 12 C-1.6273026 14.00864359 -1.6273026 14.00864359 1 15 C0.67 15.66 0.34 16.32 0 17 C-6.35368578 17.47952345 -6.35368578 17.47952345 -8.9375 15.5625 C-10.54130175 11.69450754 -10.67298561 8.12109164 -10 4 C-7.35354075 -0.17326266 -4.8005859 -0.73052394 0 0 Z " fill="#EEEEEE" transform="translate(138,20)"/>
<path d="M0 0 C0.99 0.33 1.98 0.66 3 1 C1.6415798 4.04332765 0.11536976 6.12309151 -2.2578125 8.453125 C-2.88300781 9.071875 -3.50820313 9.690625 -4.15234375 10.328125 C-4.80332031 10.96234375 -5.45429687 11.5965625 -6.125 12.25 C-6.78371094 12.8996875 -7.44242188 13.549375 -8.12109375 14.21875 C-9.74296643 15.81711727 -11.3693281 17.41061897 -13 19 C-13.99 18.67 -14.98 18.34 -16 18 C-14.6415798 14.95667235 -13.11536976 12.87690849 -10.7421875 10.546875 C-10.11699219 9.928125 -9.49179687 9.309375 -8.84765625 8.671875 C-8.19667969 8.03765625 -7.54570313 7.4034375 -6.875 6.75 C-6.21628906 6.1003125 -5.55757812 5.450625 -4.87890625 4.78125 C-3.25703357 3.18288273 -1.6306719 1.58938103 0 0 Z " fill="#CCCCCC" transform="translate(44,24)"/>
<path d="M0 0 C1.65 0 3.3 0 5 0 C5 5.61 5 11.22 5 17 C3.35 17 1.7 17 0 17 C0 11.39 0 5.78 0 0 Z " fill="#F0F0F0" transform="translate(222,20)"/>
<path d="M0 0 C2.875 -0.125 2.875 -0.125 6 0 C8 2 8 2 8.1953125 5.4765625 C8.18201493 6.85950968 8.15816232 8.24238654 8.125 9.625 C8.11597656 10.33140625 8.10695313 11.0378125 8.09765625 11.765625 C8.07407603 13.51056098 8.03820461 15.25532295 8 17 C6.68 17 5.36 17 4 17 C3.67 13.04 3.34 9.08 3 5 C1.68 4.67 0.36 4.34 -1 4 C-0.67 2.68 -0.34 1.36 0 0 Z " fill="#F4F4F4" transform="translate(97,20)"/>
<path d="M0 0 C1.65 0 3.3 0 5 0 C5 1.32 5 2.64 5 4 C3.35 4 1.7 4 0 4 C0 2.68 0 1.36 0 0 Z " fill="#E4E4E5" transform="translate(222,14)"/>

</svg>
