<svg width="48" height="47" viewBox="0 0 48 47" fill="none" xmlns="http://www.w3.org/2000/svg">
<path d="M13.6413 20.26C15.0008 14.8222 18.3994 12.1033 23.8373 12.1033C31.994 12.1033 33.0136 18.2209 37.092 19.2405C39.811 19.9202 42.19 18.9006 44.2292 16.1817C42.8697 21.6195 39.4711 24.3384 34.0332 24.3384C25.8765 24.3384 24.8569 18.2209 20.7785 17.2013C18.0595 16.5215 15.6805 17.5411 13.6413 20.26ZM3.44531 32.4952C4.80478 27.0574 8.20343 24.3384 13.6413 24.3384C21.7981 24.3384 22.8177 30.456 26.8961 31.4756C29.615 32.1554 31.994 31.1358 34.0332 28.4168C32.6738 33.8547 29.2751 36.5736 23.8373 36.5736C15.6805 36.5736 14.6609 30.456 10.5825 29.4364C7.86357 28.7567 5.48451 29.7763 3.44531 32.4952Z" fill="#44A8B3"/>
</svg>
