<svg width="47" height="47" viewBox="0 0 47 47" fill="none" xmlns="http://www.w3.org/2000/svg">
<g clip-path="url(#clip0_9894_4313)">
<path d="M39.7915 0.305054H7.16438C3.30306 0.305054 0.172852 3.43527 0.172852 7.29658V39.9237C0.172852 43.785 3.30306 46.9152 7.16438 46.9152H39.7915C43.6528 46.9152 46.783 43.785 46.783 39.9237V7.29658C46.783 3.43527 43.6528 0.305054 39.7915 0.305054Z" fill="#3178C6"/>
<path d="M21.3841 26.1591H27.2104V22.4267H10.915V26.1591H16.7413V42.8186H21.3841V26.1591ZM29.0311 41.9083C29.7685 42.2906 30.6697 42.5728 31.6711 42.764C32.6725 42.9552 33.7649 43.0462 34.8574 43.0462C35.9498 43.0462 36.9512 42.9461 37.9526 42.7367C38.954 42.5273 39.7733 42.1814 40.5016 41.7353C41.239 41.2528 41.8671 40.6429 42.2312 39.8236C42.5954 39.0043 42.8776 38.0939 42.8776 36.9104C42.8776 36.082 42.7501 35.3628 42.5044 34.7256C42.2586 34.0883 41.9035 33.5421 41.4119 33.0869C40.9476 32.6045 40.4105 32.1766 39.7733 31.8124C39.136 31.4483 38.4078 31.066 37.5884 30.72C36.9876 30.4742 36.496 30.2375 35.9498 30.0008C35.4764 29.7642 35.0668 29.5275 34.7663 29.2908C34.4295 29.045 34.1746 28.7901 33.9925 28.5261C33.8105 28.253 33.7194 27.9525 33.7194 27.6157C33.7194 27.3062 33.8005 27.024 33.9652 26.7691C34.13 26.5142 34.3567 26.3048 34.648 26.1227C34.9393 25.9407 35.3034 25.8041 35.7404 25.704C36.1683 25.6038 36.6417 25.5583 37.197 25.5583C37.5793 25.5583 37.9799 25.5865 38.3804 25.6439C38.7992 25.7012 39.2271 25.7895 39.6549 25.9079C40.0828 26.0262 40.5016 26.1719 40.9294 26.354C41.33 26.536 41.7032 26.7454 42.0219 26.9821V22.7034C41.33 22.4394 40.5653 22.2392 39.746 22.1117C38.9267 21.9843 38.0163 21.9205 36.9239 21.9205C35.8315 21.9205 34.8301 22.0389 33.8287 22.2665C32.8273 22.4941 32.008 22.8582 31.2797 23.3589C30.5423 23.8505 30.0052 24.4513 29.55 25.2706C29.1221 26.0353 28.9128 26.9093 28.9128 28.0017C28.9128 29.3672 29.3042 30.5507 30.0962 31.4611C30.8791 32.4624 32.099 33.1907 33.6466 33.919C34.2747 34.1739 34.8301 34.4288 35.3763 34.6746C35.9225 34.9204 36.3777 35.1753 36.7418 35.4393C37.1333 35.7033 37.4428 35.9946 37.6522 36.3041C37.8798 36.6137 37.9981 36.9778 37.9981 37.3966C37.9981 37.6879 37.9271 37.961 37.7887 38.2159C37.6503 38.4708 37.4337 38.6893 37.1424 38.8713C36.851 39.0534 36.496 39.1991 36.0499 39.3083C35.6221 39.4084 35.1396 39.4631 34.5023 39.4631C33.5009 39.4631 32.4996 39.2901 31.5892 38.9442C30.5878 38.5982 29.6775 38.0793 29.0311 37.5386V41.9083Z" fill="white"/>
</g>
<defs>
<clipPath id="clip0_9894_4313">
<rect width="46.6102" height="46.6102" fill="white" transform="translate(0.172852 0.305054)"/>
</clipPath>
</defs>
</svg>
