 <svg version="1.0" xmlns="http://www.w3.org/2000/svg"  width="300.000000pt" height="271.000000pt" viewBox="0 0 300.000000 271.000000"  preserveAspectRatio="xMidYMid meet">  <g transform="translate(0.000000,271.000000) scale(0.100000,-0.100000)" fill="#524189" stroke="none"> <path d="M1315 2684 c-22 -9 -54 -13 -71 -10 -28 4 -38 -2 -91 -58 -48 -49 -63 -72 -72 -113 -8 -34 -25 -65 -47 -89 -45 -47 -63 -83 -85 -169 -20 -75 -25 -220 -9 -230 6 -4 10 5 10 19 0 14 5 26 11 26 7 0 9 11 5 30 -3 19 -2 29 4 25 6 -3 10 -1 10 4 0 6 -5 11 -12 11 -6 0 -8 3 -5 7 4 3 2 12 -4 20 -6 7 -9 14 -5 14 3 1 11 3 16 4 6 1 13 3 17 4 3 0 -1 9 -10 19 -11 12 -13 22 -7 32 5 8 10 11 10 5 1 -17 39 59 40 80 0 11 21 42 45 69 25 27 45 52 45 56 0 7 51 25 98 35 17 4 32 11 32 17 0 6 -8 7 -17 4 -9 -4 -20 -1 -25 6 -8 10 -11 10 -15 1 -7 -20 -23 -15 -33 10 l-9 22 0 -22 c-1 -13 -6 -23 -12 -23 -6 0 -8 7 -5 16 3 9 6 22 6 30 0 9 5 12 10 9 6 -3 10 2 11 12 1 13 3 11 9 -7 8 -24 8 -24 9 7 1 24 9 37 33 54 l31 23 -6 -25 c-4 -13 -7 -28 -7 -32 0 -5 -4 -5 -10 -2 -12 7 -13 -25 -2 -43 6 -9 13 1 22 30 8 24 13 47 11 52 -2 11 19 36 31 36 5 0 4 -10 -2 -22 -9 -18 -6 -17 10 4 18 24 25 26 42 17 15 -8 17 -14 9 -22 -6 -6 -11 -22 -11 -36 1 -23 2 -24 11 -8 6 10 8 21 5 24 -11 11 59 58 86 57 15 0 28 4 28 8 0 4 8 8 18 8 12 0 14 -2 4 -8 -7 -5 -14 -18 -17 -30 -3 -16 0 -19 12 -15 12 5 15 2 10 -9 -5 -13 4 -15 60 -12 40 3 71 0 79 -7 22 -18 16 6 -6 26 -23 20 -104 32 -114 17 -4 -6 -13 -9 -21 -6 -20 8 -9 24 17 24 17 0 19 2 7 16 -10 12 -28 15 -75 12 -34 -2 -60 0 -57 5 6 10 -6 8 -52 -9z"/> <path d="M1597 2584 c2 -7 12 -15 21 -17 10 -3 4 -5 -11 -6 -17 -1 -26 3 -22 9 3 6 -2 10 -12 10 -16 -1 -15 -3 5 -19 12 -11 22 -24 22 -30 0 -6 7 -11 15 -11 16 0 32 -25 39 -64 3 -14 8 -36 11 -47 8 -24 -4 -20 -42 14 -32 28 -29 12 6 -32 15 -20 38 -55 49 -78 12 -22 26 -43 32 -45 5 -1 12 -23 16 -48 3 -25 7 -51 9 -57 3 -7 0 -13 -6 -13 -6 0 -7 -5 -3 -12 4 -6 7 -26 8 -45 1 -38 -8 -40 -62 -16 -48 21 -202 25 -202 5 0 -11 17 -12 79 -6 72 6 80 5 100 -15 42 -42 25 -146 -31 -185 -14 -10 -44 -16 -79 -16 -50 0 -61 4 -87 29 -27 28 -62 109 -62 146 0 14 -9 16 -47 14 -36 -2 -57 2 -83 19 -40 25 -51 26 -138 12 -83 -14 -156 -49 -160 -77 -3 -17 1 -20 16 -16 15 4 23 -6 40 -55 12 -32 31 -67 42 -77 29 -26 117 -32 159 -11 l32 17 -19 -38 -20 -38 23 -17 c26 -19 70 -25 60 -8 -4 6 -16 8 -27 4 -20 -6 -21 -4 -15 42 3 27 18 72 32 99 19 37 25 58 20 83 -6 33 -6 33 30 30 34 -3 38 -6 55 -58 11 -31 31 -66 48 -81 55 -50 170 -45 212 8 11 14 27 50 36 80 8 29 19 53 23 53 32 0 29 -65 -8 -200 -10 -37 -17 -79 -14 -93 4 -19 0 -29 -11 -33 -11 -4 -14 -14 -10 -33 4 -21 3 -23 -6 -11 -9 12 -11 11 -9 -10 3 -51 -1 -70 -16 -70 -10 0 -15 -10 -15 -28 0 -35 -9 -45 -27 -31 -17 14 -17 -2 0 -20 10 -11 10 -14 0 -18 -7 -3 -13 -11 -13 -19 0 -10 -7 -13 -25 -8 -29 7 -33 -3 -7 -22 15 -12 21 -9 45 19 19 21 26 25 21 12 -4 -11 -9 -42 -12 -68 -3 -42 0 -53 21 -75 38 -40 41 -70 16 -138 -28 -74 -59 -124 -109 -174 -22 -22 -40 -44 -40 -49 0 -5 -8 -12 -17 -15 -10 -3 -37 -24 -61 -46 -23 -22 -49 -40 -57 -40 -7 0 -25 -10 -39 -22 -55 -51 -63 -55 -95 -50 -34 5 -58 32 -102 117 -14 27 -36 70 -49 93 -31 59 -40 251 -16 314 9 21 14 44 11 49 -4 5 -1 9 5 9 9 0 10 18 6 63 -5 52 -4 59 6 43 24 -36 107 -114 128 -119 23 -6 26 5 6 22 -11 9 -15 9 -19 -1 -3 -7 -6 -1 -6 13 -1 17 -10 30 -26 39 -14 7 -25 19 -25 27 0 17 -20 17 -21 1 0 -7 -4 -4 -8 7 -5 11 -4 28 1 39 8 14 7 17 -4 10 -23 -15 -40 -13 -34 2 3 9 -5 25 -20 39 -15 14 -23 29 -18 36 4 8 3 9 -4 5 -7 -4 -13 0 -13 11 -3 43 -7 60 -16 78 -5 11 -10 47 -12 80 -1 33 -6 76 -10 95 -6 23 -7 6 -3 -51 3 -62 1 -88 -7 -94 -19 -11 -32 8 -38 52 -3 27 -1 43 7 48 10 6 11 1 6 -18 -6 -26 7 -46 19 -27 3 5 2 10 -4 10 -6 0 -8 7 -4 16 3 8 0 26 -7 40 -13 24 -13 27 18 85 1 4 -4 9 -12 12 -9 4 -13 1 -10 -6 2 -7 -4 -17 -15 -24 -18 -11 -19 -8 -23 42 -3 49 -2 52 14 39 12 -12 18 -12 24 -3 9 15 -24 41 -46 36 -11 -2 -15 -15 -13 -52 1 -27 6 -58 11 -69 21 -47 29 -84 21 -98 -13 -24 11 -99 36 -108 15 -6 26 -25 38 -70 10 -33 29 -79 42 -100 19 -30 25 -53 25 -92 -1 -51 -2 -54 -44 -80 -24 -16 -52 -28 -62 -29 -30 0 -109 -36 -107 -48 2 -6 -5 -10 -15 -9 -9 1 -104 0 -209 0 -186 -2 -193 -3 -193 -22 0 -24 8 -25 34 -5 13 10 43 15 90 15 70 -1 97 -10 109 -40 3 -10 6 -7 6 8 1 13 5 21 10 17 5 -3 12 -1 16 5 3 5 16 10 27 10 20 0 20 -1 3 -20 -10 -11 -22 -17 -28 -13 -6 4 -7 1 -3 -6 6 -9 12 -9 24 3 10 8 24 16 32 18 8 2 17 6 20 9 3 3 17 9 32 12 23 6 25 4 21 -13 -3 -12 0 -20 8 -20 7 0 10 3 7 6 -9 9 61 74 80 74 15 0 15 -2 2 -10 -26 -16 -1 -11 46 10 24 11 44 25 44 30 0 11 39 34 46 27 2 -2 -5 -24 -16 -48 -24 -55 -28 -214 -6 -277 27 -76 101 -215 137 -256 37 -43 38 -54 8 -98 -20 -28 -26 -63 -9 -53 6 4 10 -6 10 -23 0 -42 11 -92 20 -92 5 0 6 9 3 20 -4 14 0 20 11 20 22 0 20 16 -5 41 -20 20 -21 25 -9 81 12 55 16 61 59 85 59 34 215 158 278 221 45 45 114 165 134 234 11 39 -8 99 -39 126 -15 13 -22 21 -17 19 6 -3 11 16 11 46 1 29 10 72 19 97 9 25 26 77 37 115 11 39 30 81 43 95 19 21 24 41 29 123 5 70 13 111 27 139 25 48 20 74 -11 58 -25 -13 -41 -5 -33 16 4 12 8 13 13 3 5 -7 11 13 16 47 7 60 -20 225 -52 317 -8 22 -14 50 -14 62 0 12 -9 30 -19 39 -11 10 -24 29 -30 44 -12 28 -65 63 -54 36z m-362 -528 c26 -11 36 -24 45 -54 11 -34 10 -44 -9 -80 -29 -57 -55 -72 -121 -72 -46 0 -60 4 -77 23 -32 35 -43 62 -43 110 0 50 11 64 59 73 l33 7 -26 -26 c-26 -26 -35 -57 -16 -57 6 0 29 9 51 21 23 11 44 18 47 15 3 -3 0 -6 -6 -6 -7 0 -12 -4 -12 -10 0 -5 12 -10 26 -10 19 0 25 4 20 15 -4 11 2 15 22 16 21 1 18 4 -16 12 -38 9 -46 7 -72 -12 -33 -24 -36 -19 -17 22 14 31 56 36 112 13z m489 -270 c-4 -31 -11 -56 -15 -56 -12 0 -11 22 2 76 15 59 21 50 13 -20z"/> <path d="M1216 1951 c-4 -5 4 -7 16 -3 17 4 20 2 14 -13 -5 -15 -4 -16 9 -5 8 7 15 16 15 21 0 12 -47 12 -54 0z"/> <path d="M1250 2500 c0 -15 7 -20 27 -20 25 0 25 14 0 15 -7 1 -11 6 -9 13 1 7 -2 12 -8 12 -5 0 -10 -9 -10 -20z"/> <path d="M1500 2471 c0 -6 6 -11 13 -12 6 0 20 -2 31 -4 24 -5 8 11 -21 20 -14 4 -23 2 -23 -4z"/> <path d="M1148 2126 c-19 -9 -13 -11 42 -16 36 -3 67 -4 69 -3 2 2 -2 9 -9 18 -14 17 -64 17 -102 1z"/> <path d="M1490 2118 c0 -5 11 -8 25 -8 14 0 25 3 25 8 0 4 -11 7 -25 7 -14 0 -25 -3 -25 -7z"/> <path d="M1520 2003 l1 -28 14 25 c12 22 14 23 20 8 4 -10 17 -18 29 -18 19 0 18 2 -9 20 -41 27 -55 25 -55 -7z"/> <path d="M1450 1950 c8 -5 24 -10 34 -10 26 0 18 6 -19 14 -22 5 -26 4 -15 -4z"/> <path d="M1328 1780 c2 -17 8 -33 13 -36 14 -9 10 42 -4 55 -11 8 -13 5 -9 -19z"/> <path d="M1163 1726 c-7 -8 -17 -16 -23 -18 -19 -6 -23 -71 -6 -108 11 -23 14 -26 10 -10 -11 46 -4 84 22 117 24 32 22 47 -3 19z"/> <path d="M1312 1713 c2 -10 10 -17 16 -15 7 1 12 -2 12 -8 0 -5 -6 -10 -14 -10 -8 0 -16 -3 -19 -7 -2 -5 -2 -2 0 6 2 9 -2 11 -14 6 -37 -15 -53 -17 -53 -6 0 6 -10 11 -22 11 -21 -1 -21 -2 5 -16 36 -20 106 -27 175 -19 61 7 62 20 3 17 -30 -2 -41 1 -45 15 -3 10 -15 24 -27 31 -18 12 -20 11 -17 -5z"/> <path d="M1047 1706 c-3 -8 0 -19 7 -25 10 -9 12 -6 8 14 -5 29 -8 31 -15 11z"/> <path d="M1466 1692 c4 -14 54 -48 54 -37 0 5 -50 55 -55 55 -2 0 -1 -8 1 -18z"/> <path d="M1557 1672 c-5 -7 -11 -40 -13 -74 -3 -34 -5 -64 -6 -67 -2 -19 3 -31 13 -31 6 0 10 15 8 33 -1 17 1 48 5 68 9 45 5 90 -7 71z"/> <path d="M1180 1660 c19 -13 30 -13 30 0 0 6 -10 10 -22 10 -19 0 -20 -2 -8 -10z"/> <path d="M1057 1647 c-7 -19 6 -38 20 -29 8 5 8 12 -2 25 -10 14 -14 15 -18 4z"/> <path d="M1173 1606 c4 -13 326 -16 333 -4 3 5 -41 8 -98 7 -57 -1 -133 1 -171 3 -45 3 -66 1 -64 -6z"/> <path d="M1152 1561 c-16 -9 -5 -41 14 -41 15 0 16 6 6 32 -4 11 -12 14 -20 9z"/> <path d="M1340 1513 c0 -5 -12 -9 -26 -10 -54 -3 -41 -18 16 -18 60 0 77 6 65 24 -7 12 -55 15 -55 4z"/> <path d="M1273 1395 c0 -14 3 -28 8 -31 5 -3 9 6 9 20 0 14 -4 27 -9 30 -5 3 -8 -6 -8 -19z"/> <path d="M1311 1373 c-1 -12 4 -25 9 -28 12 -7 12 2 0 30 -8 19 -9 19 -9 -2z"/> <path d="M1395 1350 c-3 -6 1 -13 10 -16 21 -9 26 -2 10 13 -9 8 -16 9 -20 3z"/> <path d="M1651 1324 c10 -13 72 -44 86 -44 2 0 1 6 -2 13 -4 6 3 1 14 -13 11 -14 21 -21 21 -16 0 5 8 2 19 -8 10 -9 38 -20 62 -25 24 -5 37 -10 29 -11 -8 -1 -1 -6 15 -10 17 -4 39 -11 50 -15 20 -7 20 -7 0 11 -18 15 -18 16 -2 10 10 -3 36 -9 58 -12 21 -4 37 -9 35 -13 -2 -3 26 -7 62 -9 36 -1 71 -7 78 -13 7 -5 29 -10 51 -9 21 0 58 -3 83 -7 l45 -8 -2 -55 -2 -55 21 40 c19 36 22 38 32 21 6 -10 23 -30 39 -44 20 -19 24 -28 15 -34 -9 -5 -8 -8 5 -8 21 0 137 -107 137 -126 0 -7 10 -14 23 -16 14 -2 22 -10 22 -23 0 -12 7 -20 17 -20 15 0 65 -52 57 -59 -2 -1 -22 -13 -44 -27 -31 -18 -36 -25 -22 -27 10 -2 27 4 38 14 18 16 21 16 55 -2 19 -10 45 -30 57 -43 l22 -23 -32 6 c-36 8 -133 -19 -210 -58 -73 -37 -159 -111 -190 -163 -36 -61 -49 -162 -27 -205 9 -16 14 -32 12 -34 -2 -2 -21 8 -41 22 -32 21 -37 30 -37 64 0 27 -8 48 -25 68 -14 17 -32 43 -40 59 -24 45 -17 15 18 -85 18 -51 36 -89 40 -86 4 4 7 2 7 -5 0 -7 -12 -22 -26 -34 -32 -25 -54 -74 -54 -122 0 -29 -4 -35 -22 -36 -90 -5 -112 -9 -121 -18 -8 -8 -247 -11 -796 -13 -433 0 -754 -4 -716 -8 107 -10 1657 1 1678 12 16 8 17 17 12 62 -7 50 -5 55 25 90 l32 36 42 -24 c22 -13 63 -36 90 -50 58 -31 153 -102 159 -119 5 -16 387 -24 387 -8 0 8 -55 11 -181 11 l-180 0 -70 73 c-74 77 -179 234 -179 268 0 68 99 169 228 231 113 55 153 58 214 19 26 -16 55 -45 64 -63 9 -18 34 -55 55 -82 27 -34 39 -59 41 -85 1 -31 2 -29 7 14 6 43 3 54 -16 80 -13 17 -41 57 -63 91 -22 33 -51 66 -64 74 -14 7 -23 17 -20 21 3 5 -13 28 -34 51 -21 24 -49 59 -62 78 -13 19 -98 110 -190 201 -165 165 -168 167 -231 182 -58 15 -166 34 -229 42 -14 1 -77 10 -140 20 -102 15 -118 21 -141 46 -17 17 -41 30 -65 34 -22 3 -52 10 -67 15 -25 8 -27 7 -16 -6z m758 -1059 c11 -20 24 -48 28 -63 6 -25 5 -26 -11 -13 -20 17 -35 43 -46 82 -12 40 4 36 29 -6z"/> <path d="M364 1202 c-20 -30 -57 -65 -101 -95 -69 -47 -154 -127 -134 -127 6 0 22 16 37 35 15 20 29 33 32 30 3 -3 21 9 39 27 18 17 35 29 39 26 5 -6 51 43 121 126 12 14 16 26 10 26 -7 0 -26 -22 -43 -48z"/> <path d="M487 1211 c-39 -25 -46 -35 -20 -28 13 3 26 1 29 -4 9 -15 21 -10 27 11 3 11 16 24 29 29 22 9 22 10 -7 10 -16 0 -42 -8 -58 -18z"/> <path d="M935 1220 c3 -5 -1 -31 -8 -58 -13 -41 -13 -51 -1 -67 13 -17 14 -15 14 27 0 25 3 60 6 77 4 21 3 31 -5 31 -7 0 -9 -4 -6 -10z"/> <path d="M589 1199 c-19 -19 -20 -23 -6 -31 14 -7 16 -24 12 -101 -2 -52 0 -85 5 -77 10 18 25 230 16 230 -3 0 -16 -10 -27 -21z"/> <path d="M437 1143 c-4 -3 -7 -16 -6 -27 0 -19 1 -19 10 3 10 24 8 36 -4 24z"/> <path d="M651 1127 c2 -2 18 -11 34 -22 l30 -18 -19 21 c-11 12 -26 22 -34 22 -9 0 -13 -1 -11 -3z"/> <path d="M856 1101 c-3 -5 1 -11 9 -15 9 -3 15 0 15 9 0 16 -16 20 -24 6z"/> <path d="M645 1067 c-10 -24 1 -75 20 -94 15 -14 14 -18 -4 -37 -23 -25 -29 -45 -8 -27 17 13 27 5 21 -17 -2 -10 2 -3 10 13 18 36 20 55 6 55 -5 0 -10 12 -11 28 0 15 -6 43 -14 62 -10 29 -14 32 -20 17z"/> <path d="M695 1060 c10 -11 23 -20 28 -20 6 0 2 9 -8 20 -10 11 -23 20 -28 20 -6 0 -2 -9 8 -20z"/> <path d="M850 1035 c-8 -9 -9 -25 -5 -42 7 -22 9 -24 12 -10 5 18 6 18 24 1 17 -15 19 -15 19 -1 0 8 -5 17 -10 19 -6 2 -12 13 -13 26 -2 26 -10 28 -27 7z"/> <path d="M900 1043 c0 -5 7 -17 15 -27 11 -14 12 -23 4 -33 -7 -8 -8 -13 -1 -13 5 0 15 7 22 15 9 11 9 15 1 15 -7 0 -9 9 -5 25 5 21 3 25 -15 25 -12 0 -21 -3 -21 -7z"/> <path d="M755 1020 c-3 -6 6 -15 20 -20 38 -14 41 -12 17 10 -24 23 -28 24 -37 10z"/> <path d="M2332 953 c-18 -113 -13 -131 8 -33 22 99 23 110 12 110 -5 0 -14 -35 -20 -77z"/> <path d="M2160 1012 c0 -12 -127 -246 -156 -287 -27 -39 -33 -56 -25 -78 6 -17 8 -16 17 5 34 75 160 315 171 326 16 16 17 29 3 37 -5 3 -10 2 -10 -3z"/> <path d="M2094 974 c-1 -13 2 -24 7 -24 11 0 12 37 2 43 -5 3 -9 -6 -9 -19z"/> <path d="M233 967 c1 -6 -10 -17 -25 -24 -16 -8 -28 -18 -28 -24 0 -15 11 -11 47 17 35 27 42 41 19 41 -8 0 -14 -5 -13 -10z"/> <path d="M1970 972 c0 -10 -61 -33 -71 -26 -5 3 -9 -2 -9 -10 0 -20 3 -20 50 4 39 20 60 40 41 40 -6 0 -11 -4 -11 -8z"/> <path d="M589 949 c-6 -94 -5 -108 6 -99 6 5 10 32 9 61 -3 53 -13 80 -15 38z"/> <path d="M826 944 c-7 -19 2 -37 15 -29 12 8 12 45 0 45 -5 0 -12 -7 -15 -16z"/> <path d="M2375 920 c-4 -12 -5 -24 -2 -27 3 -2 8 5 12 17 4 12 5 24 2 27 -3 2 -8 -5 -12 -17z"/> <path d="M19 904 c-21 -24 -22 -26 -3 -16 25 13 50 42 37 42 -5 0 -20 -12 -34 -26z"/> <path d="M337 913 c-4 -3 -6 -22 -6 -42 2 -33 2 -34 6 -7 4 22 7 26 14 15 6 -10 9 -7 9 14 0 26 -9 34 -23 20z"/> <path d="M965 910 c-4 -6 -3 -10 2 -9 20 3 27 -2 13 -11 -13 -8 -12 -10 3 -10 10 0 22 -12 28 -27 6 -16 13 -23 16 -17 11 32 -46 100 -62 74z"/> <path d="M728 879 c-10 -6 -23 -19 -29 -30 -10 -19 -9 -20 11 -9 21 11 21 11 5 -20 -11 -21 -13 -36 -7 -42 12 -12 15 -6 32 55 14 53 13 60 -12 46z"/> <path d="M57 872 c-10 -15 6 -61 26 -79 13 -11 17 -12 11 -3 -12 16 -28 70 -26 83 2 9 -5 9 -11 -1z"/> <path d="M284 865 c4 -24 16 -30 16 -7 0 12 -4 22 -9 22 -5 0 -8 -7 -7 -15z"/> <path d="M1890 863 c0 -14 -2 -15 -9 -5 -6 11 -10 10 -15 -4 -10 -25 -2 -27 24 -6 16 13 20 21 12 26 -8 4 -12 0 -12 -11z"/> <path d="M1982 860 c-7 -11 -12 -30 -11 -42 0 -17 4 -13 15 16 16 44 14 55 -4 26z"/> <path d="M180 855 c0 -8 9 -15 20 -15 11 0 20 -6 20 -14 0 -8 10 -23 23 -33 64 -51 102 -149 98 -255 -1 -45 2 -79 9 -83 22 -14 8 -41 -32 -63 -24 -12 -48 -22 -54 -22 -6 0 -17 -7 -24 -15 -21 -26 -40 -17 -114 53 -39 37 -81 76 -93 86 l-23 19 1 -39 c1 -21 3 -31 6 -21 6 24 17 19 84 -39 89 -77 89 -76 15 -129 -74 -52 -93 -56 -99 -18 -3 20 -4 16 -6 -14 0 -23 -4 -48 -7 -57 -3 -9 -1 -16 5 -16 12 0 110 61 161 101 19 15 46 30 60 34 39 12 103 45 127 67 30 28 40 17 45 -49 3 -38 17 -86 41 -139 20 -45 37 -93 37 -107 0 -31 9 -57 20 -57 17 0 -5 89 -41 166 -22 45 -39 95 -39 111 0 37 38 71 98 89 54 17 72 30 72 56 0 24 -25 34 -53 20 -12 -5 -40 -17 -62 -26 -51 -19 -34 -21 20 -1 47 17 89 19 80 5 -3 -5 -17 -10 -29 -10 -13 0 -40 -11 -60 -25 l-37 -25 -32 23 c-18 12 -35 27 -40 32 -4 6 -6 54 -5 107 2 53 1 95 -1 92 -5 -5 -51 61 -51 74 0 5 -23 37 -50 71 -28 34 -48 67 -45 72 4 5 -5 9 -19 9 -16 0 -26 -6 -26 -15z"/> <path d="M1488 834 c-27 -20 -48 -40 -48 -46 0 -5 23 9 50 32 43 36 57 51 48 50 -2 0 -24 -17 -50 -36z"/> <path d="M1563 847 c-10 -14 -28 -27 -39 -30 -13 -3 -9 -5 12 -6 23 -1 34 5 44 24 18 34 7 42 -17 12z"/> <path d="M133 824 c1 -34 4 -40 19 -36 22 5 23 18 2 26 -8 3 -13 9 -10 14 2 4 1 14 -4 22 -6 10 -9 1 -7 -26z"/> <path d="M925 823 c-19 -18 -35 -37 -35 -41 0 -13 99 -1 110 13 16 19 4 52 -20 58 -13 3 -31 -7 -55 -30z m50 -12 c-6 -21 -35 -30 -35 -12 0 12 31 43 37 37 3 -2 2 -14 -2 -25z"/> <path d="M2195 850 c-28 -11 -81 -70 -90 -99 -4 -12 -11 -46 -15 -75 -4 -28 -10 -61 -13 -73 -3 -13 -2 -23 4 -23 5 0 9 2 9 4 0 30 34 165 46 185 24 39 76 82 91 77 7 -3 13 -1 13 4 0 12 -17 12 -45 0z"/> <path d="M2473 809 c-43 -30 -93 -102 -93 -133 0 -24 17 -11 24 20 4 14 15 34 24 44 29 31 94 70 116 70 21 1 21 1 2 15 -25 19 -23 19 -73 -16z"/> <path d="M367 800 c3 -11 10 -23 16 -27 7 -4 8 0 4 11 -4 10 -7 22 -7 27 0 5 -4 9 -9 9 -5 0 -7 -9 -4 -20z"/> <path d="M2352 775 c-16 -42 -51 -87 -63 -80 -5 4 -9 -4 -9 -16 0 -18 3 -20 12 -11 7 7 20 12 30 12 10 0 26 16 38 38 11 20 26 45 32 54 10 14 10 20 0 30 -11 11 -12 9 -7 -7 6 -18 6 -19 -7 -3 -13 15 -15 14 -26 -17z"/> <path d="M2595 800 c-3 -5 1 -10 9 -10 8 0 18 5 21 10 3 6 -1 10 -9 10 -8 0 -18 -4 -21 -10z"/> <path d="M1540 793 c-48 -5 -90 -31 -69 -44 7 -4 20 2 30 14 13 17 20 19 29 11 9 -9 19 -8 41 3 27 13 39 25 22 21 -5 -1 -28 -3 -53 -5z"/> <path d="M2554 763 c6 -40 7 -40 16 -18 13 31 12 45 -5 45 -12 0 -14 -7 -11 -27z"/> <path d="M1044 766 c-6 -7 -15 -22 -18 -34 -4 -12 -13 -22 -20 -22 -16 0 -56 -42 -56 -59 0 -6 11 -1 24 13 13 15 33 26 44 26 11 0 23 6 25 13 4 10 6 10 6 0 1 -7 -8 -22 -18 -32 -11 -11 -17 -22 -13 -25 3 -3 -8 -6 -24 -6 -25 -1 -27 -2 -11 -11 12 -7 16 -17 12 -30 -4 -11 -2 -19 4 -19 6 0 11 9 11 20 0 11 6 20 13 20 13 0 57 76 57 98 0 6 -10 12 -22 12 -21 0 -21 0 -2 14 12 10 16 18 9 24 -7 7 -14 6 -21 -2z"/> <path d="M1390 745 c-18 -19 -36 -32 -40 -30 -3 2 -12 -6 -19 -17 -12 -19 -11 -19 7 -7 36 26 94 80 90 84 -2 3 -19 -11 -38 -30z"/> <path d="M408 714 c-1 -31 0 -61 4 -67 4 -7 8 18 8 56 0 81 -7 88 -12 11z"/> <path d="M2606 734 c-15 -14 -26 -28 -22 -31 3 -4 7 -4 9 -2 1 2 13 16 26 32 30 34 25 34 -13 1z"/> <path d="M844 730 c-11 -12 -36 -38 -56 -58 -21 -19 -38 -39 -38 -43 0 -12 -47 -57 -67 -64 -53 -17 -83 -68 -73 -120 l8 -40 1 39 c1 29 10 48 36 77 19 22 35 33 35 27 0 -7 16 5 36 27 70 78 129 135 143 135 8 0 -3 -16 -23 -35 -21 -19 -35 -39 -31 -44 3 -5 -23 -38 -57 -72 -65 -63 -54 -62 20 2 23 20 42 41 42 47 0 17 81 92 100 92 8 0 26 12 39 25 17 19 19 25 8 25 -9 0 -19 -5 -22 -10 -4 -6 -11 -8 -16 -5 -5 4 -9 1 -9 -4 0 -17 -38 -13 -48 6 -9 14 -11 14 -28 -7z"/> <path d="M652 728 c-7 -7 -12 -19 -12 -27 0 -11 5 -8 16 7 18 25 15 39 -4 20z"/> <path d="M1406 719 c-31 -24 -33 -39 -7 -39 11 0 22 -6 24 -12 3 -7 6 -3 6 9 1 12 6 25 11 28 12 8 13 35 1 35 -4 0 -20 -9 -35 -21z"/> <path d="M575 715 c-3 -11 -11 -28 -16 -37 -6 -12 -6 -18 1 -18 13 0 32 48 26 64 -2 6 -7 2 -11 -9z"/> <path d="M2242 683 c-20 -51 -34 -138 -30 -183 4 -44 5 -44 6 10 1 30 11 86 22 124 20 71 21 99 2 49z"/> <path d="M12 670 c0 -19 2 -27 5 -17 2 9 2 25 0 35 -3 9 -5 1 -5 -18z"/> <path d="M2573 660 c-53 -24 -57 -35 -5 -13 20 8 60 19 87 23 l50 8 -45 1 c-25 0 -64 -8 -87 -19z"/> <path d="M1326 663 c-16 -16 -4 -33 23 -33 24 0 41 14 41 34 0 6 -58 4 -64 -1z"/> <path d="M2337 656 c-4 -10 -5 -21 -2 -24 9 -9 17 6 13 25 -3 17 -4 17 -11 -1z"/> <path d="M1094 636 c-11 -11 -26 -36 -33 -53 -8 -18 -17 -33 -22 -33 -5 0 -9 -7 -9 -15 0 -8 -4 -15 -8 -15 -5 0 -15 -12 -23 -27 -8 -16 -16 -30 -19 -33 -16 -14 -48 -80 -39 -80 6 0 6 -8 -1 -21 -7 -11 6 -3 27 18 21 21 33 39 27 41 -7 2 -3 13 12 29 13 14 24 31 24 37 0 20 51 68 67 62 9 -4 13 -1 10 6 -2 7 -10 12 -16 11 -13 -4 -15 13 -2 22 5 3 12 1 16 -5 12 -20 25 1 25 41 0 44 -6 46 -36 15z"/> <path d="M525 623 c-10 -14 -29 -37 -43 -50 -14 -13 -21 -23 -16 -23 14 0 64 46 64 58 0 6 7 18 16 26 8 9 11 16 6 16 -5 0 -18 -12 -27 -27z"/> <path d="M1216 634 c-9 -24 0 -28 23 -12 12 8 18 18 14 21 -12 12 -31 7 -37 -9z"/> <path d="M1488 642 c-22 -4 -21 -3 -4 -37 l14 -27 7 32 c8 36 7 38 -17 32z"/> <path d="M892 623 c-7 -12 -12 -30 -13 -40 0 -16 -1 -16 -8 2 -8 19 -8 19 -16 -5 -4 -13 -14 -30 -21 -38 -16 -16 -19 -58 -4 -67 6 -3 11 -1 11 4 1 6 2 14 3 19 0 4 11 17 24 30 12 12 22 32 22 45 0 13 5 28 11 34 6 6 9 17 7 25 -3 9 -8 6 -16 -9z"/> <path d="M960 605 c-7 -8 -20 -15 -29 -15 -12 0 -13 -2 -3 -8 10 -7 8 -15 -9 -37 l-22 -28 21 12 c12 6 31 30 42 51 21 42 21 51 0 25z"/> <path d="M1257 563 c1 -26 3 -52 3 -58 1 -5 8 12 16 39 9 26 13 51 10 54 -3 3 -6 -1 -6 -8 0 -10 -4 -8 -13 4 -11 15 -13 11 -10 -31z"/> <path d="M2359 583 l-24 -27 33 23 c32 23 39 31 24 31 -5 0 -19 -12 -33 -27z"/> <path d="M1540 580 c-14 -11 -22 -20 -17 -21 25 -5 33 -4 45 4 13 10 17 37 5 37 -5 0 -19 -9 -33 -20z"/> <path d="M2248 565 c2 -14 8 -27 12 -30 4 -2 5 7 2 20 -2 14 -8 27 -12 30 -4 2 -5 -7 -2 -20z"/> <path d="M2302 571 c-9 -5 -11 -17 -6 -37 l8 -29 7 35 c9 40 8 42 -9 31z"/> <path d="M407 563 c-13 -12 -7 -23 12 -23 11 0 23 5 27 12 5 7 3 8 -6 3 -7 -4 -15 -2 -19 4 -4 6 -10 8 -14 4z"/> <path d="M955 524 c-9 -14 -14 -28 -12 -31 3 -3 13 9 22 26 19 38 14 41 -10 5z"/> <path d="M1610 537 c0 -8 9 -17 20 -20 11 -3 20 -1 20 4 0 4 -9 13 -20 19 -16 8 -20 8 -20 -3z"/> <path d="M2334 519 c-9 -15 -19 -176 -10 -168 6 6 25 171 21 177 -2 2 -6 -2 -11 -9z"/> <path d="M440 500 c-15 -28 -9 -34 16 -16 14 11 16 17 7 26 -8 9 -14 7 -23 -10z"/> <path d="M771 501 c-21 -21 -28 -41 -13 -41 10 1 45 50 39 57 -3 2 -15 -5 -26 -16z"/> <path d="M1170 481 c0 -17 4 -32 8 -35 4 -2 6 11 4 30 -5 42 -12 45 -12 5z"/> <path d="M873 488 c-6 -7 -13 -22 -16 -33 -6 -17 -4 -17 13 4 11 13 20 27 20 32 0 12 -6 11 -17 -3z"/> <path d="M2271 486 c-8 -10 -9 -16 -1 -21 5 -3 10 -18 10 -33 0 -54 16 -52 18 2 1 58 -8 75 -27 52z"/> <path d="M790 453 c0 -21 3 -24 9 -14 5 8 7 20 4 28 -8 21 -13 15 -13 -14z"/> <path d="M1200 433 c0 -25 2 -44 4 -42 8 10 13 89 5 89 -5 0 -9 -21 -9 -47z"/> <path d="M2055 469 c-12 -19 5 -23 22 -6 16 16 16 17 1 17 -9 0 -20 -5 -23 -11z"/> <path d="M650 455 c0 -8 -4 -15 -10 -15 -5 0 -10 -5 -10 -12 0 -6 9 -3 20 7 22 20 26 35 10 35 -5 0 -10 -7 -10 -15z"/> <path d="M681 402 c-1 -7 -9 -16 -18 -19 -10 -4 -29 -14 -41 -24 l-24 -18 38 3 c28 3 40 9 46 26 5 13 7 28 4 34 -3 7 -5 6 -5 -2z"/> <path d="M12 350 c0 -19 2 -27 5 -17 2 9 2 25 0 35 -3 9 -5 1 -5 -18z"/> <path d="M1197 354 c-4 -4 -7 -17 -7 -28 1 -19 1 -20 11 -3 11 19 8 43 -4 31z"/> <path d="M847 334 c-9 -9 4 -35 14 -28 5 3 9 12 9 20 0 14 -12 19 -23 8z"/> <path d="M1185 239 c-10 -82 -1 -85 11 -4 6 36 7 65 3 65 -4 0 -10 -27 -14 -61z"/> <path d="M1536 254 c-10 -25 1 -29 14 -5 6 12 7 21 1 21 -5 0 -12 -7 -15 -16z"/> <path d="M819 183 c-1 -5 -3 -18 -4 -30 -1 -13 -8 -30 -15 -38 -14 -17 -10 -28 7 -17 11 7 29 92 18 92 -3 0 -6 -3 -6 -7z"/> <path d="M770 163 c0 -14 -2 -15 -9 -5 -7 11 -10 10 -15 -3 -8 -22 -8 -25 3 -25 12 0 41 29 41 41 0 5 -4 9 -10 9 -5 0 -10 -8 -10 -17z"/> <path d="M1995 169 c-4 -5 31 -9 86 -9 51 0 90 2 88 5 -10 9 -169 13 -174 4z"/> <path d="M535 140 c52 -24 65 -24 65 0 0 22 -10 26 -27 9 -8 -8 -13 -8 -17 0 -4 6 -19 11 -34 10 -25 0 -24 -2 13 -19z"/> <path d="M687 136 c-15 -12 -15 -15 -2 -26 12 -10 16 -9 21 4 10 25 1 36 -19 22z"/> </g> </svg> 