<svg width="1408" height="900" viewBox="0 0 1408 900" fill="none" xmlns="http://www.w3.org/2000/svg">
<path d="M1388.06 659.783C1388.06 918.682 1100.54 1251.34 733.893 1411.43C478.208 1523.09 239.695 1526.66 111.416 1420.79C56.4808 1375.47 24.9022 1310.98 20.1363 1234.28C3.83765 972.672 296.995 626.021 673.646 461.572C929.331 349.92 1167.84 346.342 1296.12 452.214C1351.06 497.535 1382.64 562.03 1387.4 638.728C1387.84 645.654 1388.06 652.718 1388.06 659.783ZM23.7744 1213.04C23.7744 1220.01 23.9927 1226.94 24.4292 1233.82C29.1588 1309.83 59.2094 1371.2 113.781 1416.25C240.968 1521.2 478.063 1517.4 732.511 1406.3C1097.52 1246.94 1383.8 916.572 1383.8 659.92C1383.8 652.948 1383.58 646.021 1383.15 639.14C1378.42 563.131 1348.37 501.755 1293.8 456.709C1166.61 351.755 929.513 355.562 675.065 466.663C310.056 626.021 23.7744 956.388 23.7744 1213.04Z" fill="url(#paint0_linear_9894_3574)"/>
<path d="M1399.52 605.792C1399.52 850.975 1138.01 1187.95 784.243 1385.43C520.591 1532.63 258.357 1569.42 116.181 1479.14C59.7176 1443.32 24.8647 1390.33 12.6408 1321.71C-31.4529 1074.32 242.423 700.104 623.258 487.535C886.91 340.333 1149.14 303.544 1291.32 393.819C1347.78 429.645 1382.6 482.627 1394.86 551.251C1397.99 568.819 1399.52 587.03 1399.52 605.792ZM12.2406 1266.8C12.2406 1285.29 13.7322 1303.22 16.8246 1320.56C28.7575 1387.54 62.8464 1439.28 118.109 1474.32C259.194 1563.87 519.972 1527.03 782.497 1380.47C1134.74 1183.82 1395.22 849.095 1395.26 606.159C1395.26 587.673 1393.77 569.737 1390.68 552.397C1378.74 485.425 1344.65 433.682 1289.39 398.636C1148.31 309.095 887.529 345.929 625.004 492.489C272.764 689.095 12.2406 1023.87 12.2406 1266.8Z" fill="url(#paint1_linear_9894_3574)"/>
<path d="M1406.07 552.535C1406.07 786.434 1171.08 1124 834.777 1353.22C564.394 1537.53 287.463 1609.64 129.242 1537.03C71.5058 1510.52 32.6511 1466.57 13.8057 1406.43C-58.2648 1176.75 192.509 779.003 572.762 519.828C843.145 335.516 1120.08 263.406 1278.3 336.021C1336.03 362.535 1374.85 406.48 1393.73 466.617C1402.06 493.177 1406.07 521.984 1406.07 552.535ZM5.65642 1319.87C5.65642 1349.97 9.62194 1378.27 17.8076 1404.42C36.2164 1463.09 74.198 1505.98 130.734 1531.94C287.827 1604.09 563.412 1532.08 832.776 1348.45C1167.7 1120.2 1401.92 784.736 1401.92 553.131C1401.92 523.039 1397.95 494.736 1389.77 468.59C1371.36 409.92 1333.38 367.03 1276.84 341.067C1119.75 268.911 844.163 340.929 574.799 524.553C239.877 752.81 5.65642 1088.22 5.65642 1319.87Z" fill="url(#paint2_linear_9894_3574)"/>
<path d="M1407.56 501.617C1407.56 725.929 1199.35 1060.29 884.801 1314.97C613.472 1534.69 325.735 1643.64 151.762 1592.58C91.879 1575.01 48.804 1539.51 23.7376 1487.03C-76.0188 1278.31 147.833 861.571 522.774 557.993C794.103 338.269 1081.84 229.324 1255.81 280.379C1315.7 297.947 1358.77 333.452 1383.84 385.929C1399.92 419.507 1407.59 458.544 1407.59 501.617H1407.56ZM4.0919 1370.65C4.0919 1412.95 11.6227 1451.25 27.4121 1484.23C51.86 1535.38 94.0255 1570.06 152.744 1587.31C325.663 1638.04 612.09 1529.37 882.509 1310.42C1255.52 1008.41 1478.76 594.92 1380.2 388.681C1355.75 337.535 1313.59 302.856 1254.87 285.608C1081.95 234.874 795.522 343.544 525.103 562.489C211.754 816.204 4.0919 1148.59 4.0919 1370.65Z" fill="url(#paint3_linear_9894_3574)"/>
<path d="M1404.25 455.057C1404.25 466.663 1403.74 478.635 1402.68 491.021C1383.87 713.039 1199.79 1019.28 933.661 1271.16C569.052 1616.25 169.262 1746.98 42.5108 1562.58C11.2232 1517.08 -1.43736 1456.34 4.85653 1381.98C23.6655 1159.97 207.753 853.727 473.879 601.846C838.488 256.754 1238.28 126.02 1365.03 310.424C1391.11 348.36 1404.25 396.892 1404.25 455.057ZM7.54872 1417.86C7.54872 1474.74 20.3548 1522.12 45.7123 1559C171.044 1741.3 568.215 1610.2 931.078 1266.8C1196.29 1015.79 1379.76 711.021 1398.43 490.424C1404.58 417.626 1392.28 358.222 1361.79 313.91C1236.46 131.617 839.289 262.718 476.426 606.112C211.209 857.167 27.7765 1161.94 9.1131 1382.53C8.09443 1394.69 7.5851 1406.48 7.5851 1417.86H7.54872Z" fill="url(#paint4_linear_9894_3574)"/>
<path d="M1395.88 413.865C1395.88 628.544 1233.51 944.92 980.774 1222.03C631.336 1605.15 222.815 1788.96 70.1239 1631.85C32.2878 1592.9 12.6421 1536.53 11.7689 1464.28C9.07675 1249.69 172.027 930.287 426.875 650.883C776.241 267.81 1184.76 83.9566 1337.45 241.113C1375.29 280.058 1394.93 336.434 1395.81 408.681C1395.81 410.424 1395.81 412.168 1395.81 413.911L1395.88 413.865ZM15.9527 1459.05C15.9527 1460.79 15.9527 1462.49 15.9527 1464.19C16.8259 1534.78 35.9259 1589.78 72.7433 1627.67C223.906 1783.22 629.953 1599.42 977.9 1217.99C1231.8 939.599 1394.24 621.755 1391.51 408.773C1390.64 338.177 1371.54 283.177 1334.72 245.287C1183.56 89.7364 777.514 273.544 429.567 654.966C177.739 931.113 15.9527 1245.93 15.9527 1459.05Z" fill="url(#paint5_linear_9894_3574)"/>
<path d="M1382.96 379.599C1382.96 585.333 1246.83 887.947 1025.41 1168.27C695.91 1585.42 283.605 1821.25 106.321 1693.91C61.2818 1661.57 34.5782 1609 26.8654 1537.58C4.81863 1332.72 144.267 1005.84 382.125 704.691C711.627 287.534 1123.93 51.7546 1301.22 179.048C1346.26 211.388 1372.96 264.002 1380.67 335.379C1382.2 349.553 1382.96 364.323 1382.96 379.599ZM28.8664 1493.18C28.8664 1508.31 29.594 1522.86 31.122 1536.89C38.6165 1606.53 64.6288 1657.81 108.431 1689.23C284.151 1815.42 694.164 1580.01 1022.39 1164.46C1243.01 885.149 1378.67 584.002 1378.71 379.782C1378.71 364.645 1377.98 350.103 1376.45 336.067C1368.96 266.434 1342.94 215.149 1299.14 183.727C1123.42 57.5344 713.409 292.947 385.181 708.498C164.567 987.81 28.8664 1288.96 28.8664 1493.18Z" fill="url(#paint6_linear_9894_3574)"/>
<path d="M1365.97 353.267C1365.97 550.01 1254.98 835.056 1067.07 1110.33C762.088 1557.07 351.129 1843.04 150.925 1747.76C97.8818 1722.53 63.6474 1673.4 49.1678 1601.75C10.0947 1408.5 124.44 1079.14 340.506 762.624C645.451 315.881 1056.45 29.9637 1256.61 125.193C1309.66 150.422 1343.89 199.551 1358.37 271.202C1363.46 296.386 1365.94 323.817 1365.94 353.267H1365.97ZM45.8207 1519.37C45.8207 1548.45 48.2583 1575.56 53.3152 1600.42C67.431 1670.24 100.792 1718.13 152.453 1742.72C351.093 1837.26 759.941 1551.98 1063.83 1106.84C1278.99 791.661 1393.01 464.184 1354.26 272.578C1340.14 202.762 1306.78 154.872 1255.12 130.285C1056.48 35.7435 647.634 321.019 343.744 766.156C156.455 1040.47 45.8207 1324.14 45.8207 1519.37Z" fill="url(#paint7_linear_9894_3574)"/>
<path d="M1345.86 338.725C1345.86 406.844 1334.32 485.56 1311.44 572.073C1272.11 720.606 1200.77 885.468 1105.05 1048.91C828.992 1520.28 424.582 1853.86 203.495 1792.58C141.574 1775.42 99.1544 1729.78 77.5077 1657.03C51.3135 1569 57.7165 1445.88 96.0984 1300.93C135.426 1152.39 206.769 987.532 302.487 824.092C578.509 352.716 982.956 19.1376 1204.04 80.422C1265.96 97.578 1308.38 143.22 1330.03 215.972C1340.58 251.477 1345.86 292.716 1345.86 338.725ZM66.1569 1535.61C66.1569 1580.19 71.1774 1620.38 81.5096 1655.1C102.647 1726.06 143.976 1770.51 204.404 1787.3C423.963 1848.17 826.445 1515.51 1101.59 1045.74C1291.21 721.936 1379.33 397.028 1325.99 217.945C1304.85 146.982 1263.53 102.532 1203.1 85.7431C983.538 24.8716 581.056 357.532 305.907 827.349C153.034 1088.4 66.1569 1350.15 66.1569 1535.65V1535.61Z" fill="url(#paint8_linear_9894_3574)"/>
<path d="M1323.63 336.569C1323.63 510.33 1259.01 742.119 1138.88 984.642C895.895 1475.24 503.236 1853.36 263.595 1827.53C192.98 1819.92 140.228 1777.07 111.123 1703.59C43.6002 1533.27 103.956 1220.93 268.652 888.358C511.64 397.761 904.299 19.6419 1143.94 45.4676C1214.56 53.0823 1267.31 95.9263 1296.41 169.413C1314.71 215.513 1323.59 272.073 1323.59 336.569H1323.63ZM88.1304 1536.16C88.1304 1599.87 96.8982 1655.65 114.943 1701.11C143.793 1773.82 193.926 1814.55 263.959 1822.07C502.145 1847.76 893.021 1470.79 1135.25 981.706C1254.94 740.009 1319.41 509.275 1319.41 336.706C1319.41 272.991 1310.64 217.211 1292.59 171.752C1263.74 99.0456 1213.61 58.3116 1143.58 50.7887C905.391 25.1006 514.514 402.073 272.29 891.156C152.597 1132.85 88.1304 1363.59 88.1304 1536.16Z" fill="url(#paint9_linear_9894_3574)"/>
<path d="M1299.91 347.441C1299.91 505.377 1254.72 706.157 1167.99 918.267C961.855 1422.35 586.222 1841.2 330.574 1851.98C249.772 1855.38 187.051 1817.26 149.178 1741.8C70.4865 1584.96 105.121 1283.4 239.512 954.689C445.683 450.606 821.315 31.753 1076.93 20.9732C1157.73 17.5787 1220.45 55.698 1258.32 131.157C1286.23 186.753 1299.87 260.652 1299.87 347.441H1299.91ZM111.852 1525.42C111.852 1611.2 125.313 1684.05 152.817 1738.91C189.816 1812.67 251.263 1849.92 330.464 1846.57C584.694 1835.88 958.726 1418.31 1164.21 915.79C1297.91 588.771 1332.61 289.23 1254.72 134.047C1217.72 60.2852 1156.27 23.0374 1077.07 26.3861C822.844 37.0742 448.812 454.643 243.332 957.166C156.891 1168.59 111.815 1368.59 111.815 1525.42H111.852Z" fill="url(#paint10_linear_9894_3574)"/>
<path d="M1277.79 375.836C1277.79 511.433 1249.01 674.552 1191.93 850.607C1026.1 1362.17 672.59 1817.4 403.844 1865.42C312.528 1881.75 238.966 1849.46 191.161 1772.03C101.41 1626.75 110.578 1346.48 215.646 1022.26C381.434 510.79 734.983 55.5152 1003.73 7.53354C1095.04 -8.79673 1168.61 23.4969 1216.41 100.928C1257.41 167.304 1277.79 261.845 1277.79 375.882V375.836ZM133.971 1497.17C133.971 1609.92 154.053 1703.27 194.509 1768.77C241.331 1844.55 313.51 1876.16 403.226 1860.15C670.625 1812.4 1022.65 1358.63 1187.96 848.635C1292.45 526.249 1301.83 247.946 1213.03 104.231C1166.21 28.451 1094.03 -3.15453 1004.31 12.8546C736.911 60.6069 384.89 514.368 219.575 1024.37C162.675 1199.92 133.971 1362.4 133.971 1497.17Z" fill="url(#paint11_linear_9894_3574)"/>
<path d="M1256.98 421.157C1256.98 529.001 1241.52 651.57 1210.23 782.533C1087.73 1295.29 761.288 1781.98 482.501 1867.49C380.707 1898.73 295.576 1873.59 236.384 1794.83C137.865 1663.73 123.24 1400.38 197.311 1090.42C319.806 577.717 646.251 90.9735 925.038 5.46885C1026.83 -25.7697 1111.96 -0.63206 1171.16 78.1294C1228.05 153.863 1256.98 273.726 1256.98 421.157ZM154.818 1451.94C154.818 1597.9 183.341 1716.34 239.513 1791.11C297.577 1868.41 381.253 1892.99 481.482 1862.26C758.959 1777.12 1084.06 1292.07 1206.15 780.974C1279.75 472.9 1265.53 211.524 1168.06 81.845C1110 4.55142 1026.32 -20.0357 926.093 10.6982C648.58 95.8358 323.516 580.882 201.422 1091.98C170.244 1222.49 154.818 1344.64 154.818 1451.94Z" fill="url(#paint12_linear_9894_3574)"/>
<path d="M1240.75 485.195C1240.75 556.938 1234.78 634.002 1222.6 714.782C1145.98 1222.26 851.329 1735.06 565.776 1857.86C454.014 1905.93 356.767 1889.6 284.661 1810.61C178.174 1694 140.92 1450.15 185.013 1158.22C261.595 650.7 556.244 137.947 841.798 15.1489C953.56 -32.9246 1050.81 -16.5943 1122.91 62.3966C1199.93 146.709 1240.71 297.672 1240.71 485.195H1240.75ZM171.079 1387.95C171.079 1573.82 211.353 1723.18 287.425 1806.48C358.332 1884.14 454.123 1900.1 564.357 1852.72C848.601 1730.47 1142.01 1219.55 1218.38 713.773C1262.18 423.773 1225.43 181.754 1120.11 66.4333C1049.21 -11.1814 953.451 -27.1906 843.18 20.2406C558.936 142.488 265.524 653.406 189.161 1159.19C177.009 1239.69 171.043 1316.53 171.043 1387.95H171.079Z" fill="url(#paint13_linear_9894_3574)"/>
<path d="M1231.26 559.413C1231.26 588.266 1230.38 617.899 1228.64 648.266C1199.9 1143.95 941.519 1676.94 652.618 1836.34C533.689 1901.94 421.126 1896.11 335.704 1819.92C220.122 1716.84 162.968 1499.87 178.902 1224.69C207.607 729 466.021 196.019 754.921 36.6148C873.85 -28.9815 986.413 -23.1558 1071.84 53.0369C1174.68 144.78 1231.26 326.615 1231.26 559.413ZM180.54 1313.59C180.54 1544.55 236.457 1724.78 338.178 1815.51C423.564 1891.66 531.724 1897.17 650.908 1831.39C938.499 1672.72 1195.75 1141.8 1224.38 647.899C1240.21 374.688 1183.71 159.459 1069.36 57.4864C983.975 -18.6604 875.815 -24.165 756.631 41.6148C469.04 200.239 211.791 731.156 183.159 1225.1C181.413 1255.33 180.54 1284.87 180.54 1313.63V1313.59Z" fill="url(#paint14_linear_9894_3574)"/>
<path d="M1229.58 647.121C1229.58 1108.64 1018.17 1616.71 742.151 1802.95C616.237 1887.95 491.123 1895.19 389.911 1823.41C266.98 1736.2 190.253 1541.48 179.339 1289.09C158.674 811.708 376.741 264.782 665.387 70.011C791.338 -14.989 916.416 -22.2367 1017.63 49.5523C1140.56 136.754 1217.29 331.479 1228.2 583.864C1229.11 604.828 1229.55 625.974 1229.55 647.121H1229.58ZM182.249 1225.75C182.249 1246.89 182.686 1267.9 183.595 1288.82C194.437 1539.32 270.4 1732.49 392.021 1818.73C491.923 1889.6 615.546 1882.3 740.15 1798.22C1014.83 1612.86 1225.29 1106.85 1225.33 647.213C1225.33 626.066 1224.89 605.057 1223.98 584.139C1213.14 333.635 1137.17 140.47 1015.55 54.2312C915.652 -16.6404 792.029 -9.34683 667.425 74.7358C392.713 260.103 182.249 766.112 182.249 1225.75Z" fill="url(#paint15_linear_9894_3574)"/>
<path d="M1236.97 732.948C1236.97 1135.06 1075.04 1563.87 833.248 1757.95C702.786 1862.67 565.994 1885.24 448.047 1821.62C317.658 1751.25 222.304 1579.55 186.432 1350.61C115.526 897.902 289.536 343.636 574.325 115.058C704.751 10.3329 841.579 -12.2818 959.526 51.388C1089.92 121.755 1185.27 293.452 1221.14 522.397C1231.84 590.746 1236.97 661.434 1236.97 732.948ZM174.863 1139.83C174.863 1211.07 179.956 1281.43 190.616 1349.51C226.197 1576.66 320.641 1746.94 449.721 1816.57C566.322 1879.51 701.731 1857.08 830.956 1753.32C1114.4 1525.84 1287.54 974.049 1216.96 523.361C1181.38 296.205 1086.93 125.929 957.853 56.2962C841.252 -6.63957 705.842 15.7916 576.617 119.553C335.994 312.718 174.863 739.553 174.863 1139.83Z" fill="url(#paint16_linear_9894_3574)"/>
<path d="M1253.45 809.963C1253.45 1152.81 1130.59 1508.27 924.783 1701.48C793.011 1825.19 646.178 1865.28 511.35 1814.32C370.847 1761.2 260.358 1617.03 200.257 1408.22C78.8176 986.568 205.569 431.751 482.827 171.476C614.563 47.7606 761.396 7.71474 896.224 58.6322C1036.73 111.751 1147.22 255.926 1207.32 464.733C1238.6 573.403 1253.41 690.926 1253.45 809.963ZM158.346 1062.81C158.346 1181.29 173.081 1298.22 204.223 1406.38C263.887 1613.49 373.357 1756.52 512.551 1809.14C646.032 1859.6 791.519 1819.83 922.2 1697.16C1126.91 1504.96 1249.15 1151.25 1249.19 810.146C1249.19 691.66 1234.46 574.733 1203.31 466.568C1143.65 259.458 1034.18 116.43 894.987 63.8157C761.505 13.3569 616.018 53.1276 485.338 175.788C280.622 367.99 158.346 721.66 158.346 1062.81Z" fill="url(#paint17_linear_9894_3574)"/>
<path d="M1278.33 872.304C1278.33 1158.45 1185.6 1449.14 1015.59 1634.09C886.218 1774.83 732.073 1834.05 581.565 1800.88C431.894 1767.85 303.76 1647.26 220.739 1461.25C49.094 1076.66 125.894 528.313 391.948 238.863C521.318 98.1293 675.464 38.8633 825.972 72.0743C975.643 105.102 1103.78 225.698 1186.8 411.707C1248.75 550.515 1278.33 710.698 1278.33 872.304ZM133.425 1000.56C133.425 1161.29 162.857 1320.56 224.45 1458.63C306.816 1643.18 433.895 1762.85 582.292 1795.56C731.527 1828.5 884.399 1769.69 1012.79 1630.01C1277.39 1342.17 1353.75 796.845 1183.05 414.368C1100.68 229.827 973.605 110.148 825.208 77.4413C675.973 44.5055 523.101 103.313 394.712 242.992C225.65 426.891 133.425 716.019 133.425 1000.56Z" fill="url(#paint18_linear_9894_3574)"/>
<path d="M1310.42 915.377C1310.42 1149.69 1240.82 1385.24 1104.58 1556.34C981.61 1710.84 823.899 1790.06 660.512 1779.37C500.4 1768.91 353.858 1672.81 247.88 1508.82C27.0117 1167.07 51.7507 632.212 302.961 316.615C425.928 162.12 583.639 82.8995 747.026 93.5876C907.138 104.046 1053.68 200.147 1159.66 364.138C1260.76 520.606 1310.42 717.579 1310.42 915.377ZM101.374 957.579C101.374 1154.23 150.707 1349.92 251.191 1505.42C356.404 1668.22 501.819 1763.59 660.73 1774C822.88 1784.6 979.464 1705.93 1101.56 1552.53C1351.28 1238.82 1375.83 707.212 1156.35 367.533C1051.13 204.734 905.719 109.367 746.808 98.9546C584.658 88.3583 428.075 167.028 305.98 320.423C170.607 490.514 101.374 724.689 101.374 957.579Z" fill="url(#paint19_linear_9894_3574)"/>
<path d="M1347.97 937.029C1347.97 1125.88 1296.2 1315.52 1190.58 1469.05C957.707 1807.49 549.877 1843.91 281.459 1550.29C13.0045 1256.62 -15.882 742.396 216.992 403.956C449.866 65.5156 857.696 29.0936 1126.11 322.717C1272.8 483.176 1347.93 709.507 1347.93 937.029H1347.97ZM63.8649 935.974C63.8649 1162.03 138.519 1386.8 284.224 1546.2C550.86 1837.9 955.997 1801.71 1187.31 1465.52C1292.23 1313.04 1343.64 1124.6 1343.67 937.075C1343.67 711.02 1269.02 486.25 1123.31 326.846C856.677 35.1028 451.576 71.2954 220.23 407.488C115.308 559.965 63.8649 748.406 63.8649 935.929V935.974Z" fill="url(#paint20_linear_9894_3574)"/>
<defs>
<linearGradient id="paint0_linear_9894_3574" x1="703.77" y1="1497.72" x2="703.77" y2="375.241" gradientUnits="userSpaceOnUse">
<stop stop-color="#3DDEED"/>
<stop offset="1" stop-color="#CB00DD"/>
</linearGradient>
<linearGradient id="paint1_linear_9894_3574" x1="703.769" y1="1527.99" x2="703.769" y2="344.966" gradientUnits="userSpaceOnUse">
<stop stop-color="#3DDEED"/>
<stop offset="1" stop-color="#CB00DD"/>
</linearGradient>
<linearGradient id="paint2_linear_9894_3574" x1="703.769" y1="1564.87" x2="703.769" y2="308.085" gradientUnits="userSpaceOnUse">
<stop stop-color="#3DDEED"/>
<stop offset="1" stop-color="#CB00DD"/>
</linearGradient>
<linearGradient id="paint3_linear_9894_3574" x1="703.769" y1="1605.01" x2="703.769" y2="267.947" gradientUnits="userSpaceOnUse">
<stop stop-color="#3DDEED"/>
<stop offset="1" stop-color="#CB00DD"/>
</linearGradient>
<linearGradient id="paint4_linear_9894_3574" x1="703.77" y1="1646.2" x2="703.77" y2="226.754" gradientUnits="userSpaceOnUse">
<stop stop-color="#3DDEED"/>
<stop offset="1" stop-color="#CB00DD"/>
</linearGradient>
<linearGradient id="paint5_linear_9894_3574" x1="703.77" y1="1688.04" x2="703.77" y2="184.92" gradientUnits="userSpaceOnUse">
<stop stop-color="#3DDEED"/>
<stop offset="1" stop-color="#CB00DD"/>
</linearGradient>
<linearGradient id="paint6_linear_9894_3574" x1="703.768" y1="1728.45" x2="703.768" y2="144.507" gradientUnits="userSpaceOnUse">
<stop stop-color="#3DDEED"/>
<stop offset="1" stop-color="#CB00DD"/>
</linearGradient>
<linearGradient id="paint7_linear_9894_3574" x1="703.769" y1="1766.07" x2="703.769" y2="106.89" gradientUnits="userSpaceOnUse">
<stop stop-color="#3DDEED"/>
<stop offset="1" stop-color="#CB00DD"/>
</linearGradient>
<linearGradient id="paint8_linear_9894_3574" x1="703.769" y1="1799.78" x2="703.769" y2="73.1743" gradientUnits="userSpaceOnUse">
<stop stop-color="#3DDEED"/>
<stop offset="1" stop-color="#CB00DD"/>
</linearGradient>
<linearGradient id="paint9_linear_9894_3574" x1="703.768" y1="1828.72" x2="703.768" y2="44.2291" gradientUnits="userSpaceOnUse">
<stop stop-color="#3DDEED"/>
<stop offset="1" stop-color="#CB00DD"/>
</linearGradient>
<linearGradient id="paint10_linear_9894_3574" x1="703.769" y1="1852.17" x2="703.769" y2="20.7439" gradientUnits="userSpaceOnUse">
<stop stop-color="#3DDEED"/>
<stop offset="1" stop-color="#CB00DD"/>
</linearGradient>
<linearGradient id="paint11_linear_9894_3574" x1="703.768" y1="1869.55" x2="703.768" y2="3.35923" gradientUnits="userSpaceOnUse">
<stop stop-color="#3DDEED"/>
<stop offset="1" stop-color="#CB00DD"/>
</linearGradient>
<linearGradient id="paint12_linear_9894_3574" x1="703.77" y1="1880.52" x2="703.77" y2="-7.55872" gradientUnits="userSpaceOnUse">
<stop stop-color="#3DDEED"/>
<stop offset="1" stop-color="#CB00DD"/>
</linearGradient>
<linearGradient id="paint13_linear_9894_3574" x1="703.768" y1="1884.83" x2="703.768" y2="-11.8695" gradientUnits="userSpaceOnUse">
<stop stop-color="#3DDEED"/>
<stop offset="1" stop-color="#CB00DD"/>
</linearGradient>
<linearGradient id="paint14_linear_9894_3574" x1="703.77" y1="1881.62" x2="703.77" y2="-8.6603" gradientUnits="userSpaceOnUse">
<stop stop-color="#3DDEED"/>
<stop offset="1" stop-color="#CB00DD"/>
</linearGradient>
<linearGradient id="paint15_linear_9894_3574" x1="703.769" y1="1872.44" x2="703.769" y2="0.515586" gradientUnits="userSpaceOnUse">
<stop stop-color="#3DDEED"/>
<stop offset="1" stop-color="#CB00DD"/>
</linearGradient>
<linearGradient id="paint16_linear_9894_3574" x1="703.769" y1="1857.03" x2="703.769" y2="15.9292" gradientUnits="userSpaceOnUse">
<stop stop-color="#3DDEED"/>
<stop offset="1" stop-color="#CB00DD"/>
</linearGradient>
<linearGradient id="paint17_linear_9894_3574" x1="703.769" y1="1835.88" x2="703.769" y2="37.0725" gradientUnits="userSpaceOnUse">
<stop stop-color="#3DDEED"/>
<stop offset="1" stop-color="#CB00DD"/>
</linearGradient>
<linearGradient id="paint18_linear_9894_3574" x1="703.768" y1="1809.87" x2="703.768" y2="63.0834" gradientUnits="userSpaceOnUse">
<stop stop-color="#3DDEED"/>
<stop offset="1" stop-color="#CB00DD"/>
</linearGradient>
<linearGradient id="paint19_linear_9894_3574" x1="703.769" y1="1780.33" x2="703.769" y2="92.6243" gradientUnits="userSpaceOnUse">
<stop stop-color="#3DDEED"/>
<stop offset="1" stop-color="#CB00DD"/>
</linearGradient>
<linearGradient id="paint20_linear_9894_3574" x1="703.769" y1="1748.73" x2="703.769" y2="124.231" gradientUnits="userSpaceOnUse">
<stop stop-color="#3DDEED"/>
<stop offset="1" stop-color="#CB00DD"/>
</linearGradient>
</defs>
</svg>
